SplineFontDB: 3.0
FontName: SelectricMono
FullName: Selectric
FamilyName: Selectric
Weight: MONO

StartChar: .notdef
Encoding: 65536 -1 0
Width: 525
Flags: MW
HStem: 0 52<104 421 104 473> 481 52<104 421 104 104>
VStem: 52 52<52 52 52 481> 421 52<52 481 481 481>
LayerCount: 2
Fore
SplineSet
52 0 m 1
 52 533 l 1
 473 533 l 1
 473 0 l 1
 52 0 l 1
104 52 m 1
 421 52 l 1
 421 481 l 1
 104 481 l 1
 104 52 l 1
EndSplineSet
EndChar

StartChar: exclam
Encoding: 33 33 2
Width: 724
Flags: MW
HStem: -7 142<342 380>
VStem: 289 147<39 76 38.5 78> 312 107<691 736.5 690 737> 335 57<231 354 231 354.5>
LayerCount: 2
Fore
SplineSet
392 231 m 1x90
 392 477 419 665 419 715 c 0
 419 758 400 780 366 780 c 0
 334 780 312 758 312 716 c 0xa0
 312 666 335 478 335 231 c 1
 392 231 l 1x90
364 135 m 0
 422 135 436 91 436 61 c 0
 436 16 401 -7 359 -7 c 0
 325 -7 289 17 289 61 c 0xc0
 289 95 310 135 364 135 c 0
EndSplineSet
EndChar

StartChar: quotedbl
Encoding: 34 34 3
Width: 724
Flags: MW
HStem: 607 178<205.5 245 464.5 504>
VStem: 245 94<571.5 607> 504 94<571.5 607>
LayerCount: 2
Fore
SplineSet
490 785 m 0
 564 785 598 727 598 658 c 0
 598 485 407 412 407 412 c 1
 385 456 l 1
 385 456 504 491 504 607 c 1
 425 607 388 653 395 709 c 0
 400 750 431 785 490 785 c 0
231 785 m 0
 305 785 339 727 339 658 c 0
 339 485 148 412 148 412 c 1
 126 456 l 1
 126 456 245 491 245 607 c 1
 166 607 129 653 136 709 c 0
 141 750 172 785 231 785 c 0
EndSplineSet
EndChar

StartChar: numbersign
Encoding: 35 35 4
Width: 724
Flags: W
LayerCount: 2
Fore
SplineSet
414 86 m 1
 465.000976562 86.0009765625 l 1
 465.309570312 239.255859375 l 1
 573.000976562 239.000976562 l 1
 573.000976562 291.000976562 l 1
 465.415039062 291.255859375 l 1
 465.606445312 386.255859375 l 1
 573.000976562 386.000976562 l 1
 573.000976562 438.000976562 l 1
 465.7109375 438.254882812 l 1
 466.000976562 582.000976562 l 1
 415.000976562 582.000976562 l 1
 414.7109375 438.375976562 l 1
 318.7109375 438.603515625 l 1
 319 582.000976562 l 1
 268 582.000976562 l 1
 267.7109375 438.724609375 l 1
 151 439.000976562 l 1
 151 387.000976562 l 1
 267.606445312 386.724609375 l 1
 267.415039062 291.724609375 l 1
 151 292 l 1
 151 240 l 1
 267.309570312 239.724609375 l 1
 267 86 l 1
 318 86 l 1
 318.309570312 239.603515625 l 1
 414.309570312 239.375976562 l 1
 414 86 l 1
414.415039062 291.376953125 m 1
 318.415039062 291.604492188 l 1
 318.606445312 386.604492188 l 1
 414.606445312 386.376953125 l 1
 414.415039062 291.376953125 l 1
EndSplineSet
EndChar

StartChar: dollar
Encoding: 36 36 5
Width: 724
Flags: MW
HStem: -12.9864 51.0091 707.749 51.953
VStem: 101 44 103 90 103 221.321 520 33 531 93
LayerCount: 2
Fore
SplineSet
273 -112 m 1xd0
 324.000976562 -112 l 1
 324.212890625 -12.986328125 l 1
 328.749023438 -12.9970703125 333.34375 -13 338.000976562 -13 c 0
 351.5 -13 364.900390625 -12.359375 378.109375 -11.0830078125 c 1
 378.000976562 -111.999023438 l 1
 429.000976562 -111.999023438 l 1
 429.118164062 -2.7373046875 l 1
 538.495117188 22.9326171875 624.000976562 96.498046875 624.000976562 215.000976562 c 0xd2
 624.000976562 342.59375 529.853515625 383.685546875 429.563476562 413.415039062 c 1
 429.87890625 707.749023438 l 1
 497.524414062 693.671875 520.000976562 656.262695312 520.000976562 597.000976562 c 1
 553.000976562 597.000976562 l 1
 553.000976562 721.000976562 l 1
 553.000976562 721.000976562 512.546875 749.798828125 429.934570312 759.702148438 c 1
 430.000976562 822 l 1
 379.000976562 822 l 1
 378.9375 762.965820312 l 2
 376.975585938 762.98828125 374.997070312 763 373.000976562 763 c 0
 356.58203125 763 340.8671875 762.26953125 325.869140625 760.833984375 c 1
 326 822 l 1
 274 822 l 1
 273.92578125 752.413085938 l 1
 162.451171875 726.047851562 103.000976562 651.794921875 103.000976562 545 c 0xcc
 103.000976562 436.610351562 182.814453125 392.369140625 273.508789062 362.108398438 c 1
 273.16796875 43.5859375 l 1
 200.326171875 59.4248046875 145.000976562 110.153320312 145.000976562 211 c 1
 101.000976562 209 l 1xe0
 103.000976562 38 l 1
 158.696289062 0.3681640625 210.993164062 -9.5068359375 273.107421875 -12.08984375 c 1
 273 -112 l 1xd0
273.618164062 464.428710938 m 1
 225.9453125 488 193.000976562 522.004882812 193.000976562 582 c 0
 193.000976562 638.604492188 222.713867188 679.244140625 273.870117188 699.489257812 c 1
 273.618164062 464.428710938 l 1
324.982421875 346.297851562 m 1
 343.061523438 341.053710938 361.063476562 335.985351562 378.473632812 330.71875 c 1
 378.1640625 41.17578125 l 1
 362.637695312 39.076171875 345.91796875 38 328.000976562 38 c 0
 326.772460938 38 325.545898438 38.0078125 324.322265625 38.0224609375 c 2xc8
 324.982421875 346.297851562 l 1
325.190429688 443.869140625 m 1
 325.765625 712.1171875 l 1
 338.440429688 713.626953125 351.874023438 714.266601562 366.000976562 714 c 0
 370.409179688 713.924804688 374.703125 713.796875 378.884765625 713.616210938 c 1
 378.579101562 427.885742188 l 1
 360.310546875 433.014648438 342.334960938 438.189453125 325.190429688 443.869140625 c 1
429.456054688 313.538085938 m 1
 488.096679688 290.810546875 531.000976562 259.887695312 531.000976562 200.998046875 c 0xc2
 531.000976562 129.364257812 497.297851562 77.3486328125 429.177734375 53.1572265625 c 1
 429.456054688 313.538085938 l 1
EndSplineSet
EndChar

StartChar: percent
Encoding: 37 37 6
Width: 724
Flags: MW
HStem: 2 266 499 266
LayerCount: 2
Fore
SplineSet
191 0 m 1
 242 -13 l 1
 539 763 l 1
 487 776 l 1
 191 0 l 1
189 765 m 0
 260 764 314 700 310 629 c 0
 306 556 260 499 173 499 c 0
 112 499 61 567 65 634 c 0
 69 704 119 766 189 765 c 0
168 732 m 0
 130 725 97 680 112 613 c 0
 123 561 170 520 217 535 c 0
 265 551 270 609 264 645 c 0
 255 699 224 742 168 732 c 0
538 268 m 0
 609 267 664 203 660 132 c 0
 656 59 610 2 523 2 c 0
 462 2 410 70 414 137 c 0
 418 207 468 269 538 268 c 0
517 235 m 0
 479 228 447 183 462 116 c 0
 473 64 520 23 567 38 c 0
 615 54 619 112 613 148 c 0
 604 202 573 245 517 235 c 0
EndSplineSet
EndChar

StartChar: ampersand
Encoding: 38 38 7
Width: 724
Flags: MW
HStem: -13 51<254 336 254 344.5> 258 42<342 391> 415 46<306.5 337 337 338 306.5 459> 729 51<282.5 338 267 347>
VStem: 103 75<170 272 170 295.5> 153 71<564 638 564 667.5> 415 49<624 648.5> 443 73<-148 86 86 86>
LayerCount: 2
Fore
SplineSet
464 780 m 1xf6
 464 624 l 1
 415 624 l 1
 415 673 377 729 317 729 c 0
 248 729 224 678 224 598 c 0xf6
 224 530 275 461 338 461 c 2
 338 461 412 462 459 462 c 1
 459 415 l 1
 337 415 l 2
 225 415 178 334 178 210 c 0
 178 130 206 38 302 38 c 0
 370 38 440 112 440 187 c 0
 440 256 440 258 342 258 c 1
 342 300 l 1
 621 300 l 1
 621 260 l 1
 516 260 516 256 516 187 c 2
 516 -148 l 1
 443 -148 l 1
 443 86 l 1
 443 86 403 -13 286 -13 c 0
 198 -13 103 44 103 209 c 0xf9
 103 382 183 418 260 452 c 1
 218 469 153 509 153 603 c 0
 153 732 216 780 318 780 c 0
 358 780 389 751 389 751 c 1
 389 751 414 736 414 780 c 1
 464 780 l 1xf6
EndSplineSet
EndChar

StartChar: quotesingle
Encoding: 39 39 8
Width: 724
Flags: MW
HStem: 607 178<335.5 375>
VStem: 375 94<571.5 607>
LayerCount: 2
Fore
SplineSet
361 785 m 0
 435 785 469 727 469 658 c 0
 469 485 278 412 278 412 c 1
 256 456 l 1
 256 456 375 491 375 607 c 1
 296 607 259 653 266 709 c 0
 271 750 302 785 361 785 c 0
EndSplineSet
EndChar

StartChar: parenleft
Encoding: 40 40 9
Width: 724
Flags: MW
HStem: 754 38<497 519>
VStem: 205 79<176.5 468>
LayerCount: 2
Fore
SplineSet
519 754 m 1
 497 792 l 1
 254 718 205 571 205 365 c 0
 205 -12 277 -76 479 -186 c 1
 501 -148 l 1
 321 -52 284 -12 284 365 c 0
 284 571 299 695 519 754 c 1
EndSplineSet
EndChar

StartChar: parenright
Encoding: 41 41 10
Width: 724
Flags: MW
HStem: 754 38<205 227>
VStem: 440 79<176.5 468>
LayerCount: 2
Fore
SplineSet
205 754 m 1
 227 792 l 1
 470 718 519 571 519 365 c 0
 519 -12 447 -76 245 -186 c 1
 223 -148 l 1
 403 -52 440 -12 440 365 c 0
 440 571 425 695 205 754 c 1
EndSplineSet
EndChar

StartChar: asterisk
Encoding: 42 42 11
Width: 724
Flags: MW
VStem: 321 86<746 791.5 745 792> 344 35<621 666 621 666>
LayerCount: 2
Fore
SplineSet
344 621 m 1x40
 260 648 260 677 212 693 c 0
 171 706 144 697 136 672 c 0
 129 649 144 624 184 611 c 0
 231 596 247 614 330 588 c 1
 279 518 252 526 223 486 c 0
 198 451 198 423 219 408 c 0
 239 394 267 400 292 434 c 0
 322 475 308 496 360 568 c 1
 406 493 388 472 415 429 c 0
 438 392 464 382 486 396 c 0
 506 409 511 437 489 473 c 0
 462 516 437 512 390 588 c 1
 474 615 491 592 539 608 c 0
 580 621 596 644 588 669 c 0
 581 692 554 703 514 690 c 0
 466 674 463 650 379 622 c 1x40
 379 710 407 720 407 770 c 0
 407 813 390 835 364 835 c 0
 340 835 321 813 321 771 c 0x80
 321 721 344 711 344 622 c 2
 344 621 l 1x40
EndSplineSet
EndChar

StartChar: plus
Encoding: 43 43 12
Width: 724
Flags: W
LayerCount: 2
Fore
SplineSet
336 104 m 1
 387 104 l 1
 387.450195312 341.453125 l 1
 626 341 l 1
 626 393 l 1
 387.548828125 393.452148438 l 1
 388 631 l 1
 337 631 l 1
 336.549804688 393.548828125 l 1
 99 394 l 1
 99 342 l 1
 336.451171875 341.549804688 l 1
 336 104 l 1
EndSplineSet
EndChar

StartChar: comma
Encoding: 44 44 13
Width: 724
Flags: MW
HStem: -14 179<335.5 375>
VStem: 375 94<-48.5 -14>
LayerCount: 2
Fore
SplineSet
361 165 m 0
 435 165 469 107 469 38 c 0
 469 -135 278 -209 278 -209 c 1
 256 -165 l 1
 256 -165 375 -130 375 -14 c 1
 296 -14 259 32 266 88 c 0
 271 129 302 165 361 165 c 0
EndSplineSet
EndChar

StartChar: hyphen
Encoding: 45 45 14
Width: 724
Flags: W
LayerCount: 2
Fore
SplineSet
563 341 m 1
 563 393 l 1
 162 394 l 1
 162 342 l 1
 563 341 l 1
EndSplineSet
EndChar

StartChar: period
Encoding: 46 46 15
Width: 724
Flags: MW
HStem: -13 188<343.5 391>
VStem: 265 194<52 106.5 51.5 114>
LayerCount: 2
Fore
SplineSet
364 175 m 0
 423 175 459 127 459 86 c 0
 459 17 411 -13 371 -13 c 0
 316 -13 265 18 265 86 c 0
 265 142 309 175 364 175 c 0
EndSplineSet
EndChar

StartChar: slash
Encoding: 47 47 16
Width: 724
Flags: W
LayerCount: 2
Fore
SplineSet
170 -99 m 1
 222 -111 l 1
 554 763 l 1
 503 776 l 1
 170 -99 l 1
EndSplineSet
EndChar

StartChar: zero
Encoding: 48 48 17
Width: 724
Flags: MW
HStem: -13 40<300.5 416.5 300.5 439.5> 740 40<312.5 416>
VStem: 130 96<291.5 440 291.5 457.5> 498 96<316 460>
LayerCount: 2
Fore
SplineSet
369 780 m 0
 553 780 594 607 594 361 c 0
 594 192 527 -13 352 -13 c 0
 183 -13 130 202 130 365 c 0
 130 550 181 780 369 780 c 0
364 740 m 0
 261 740 226 514 226 366 c 0
 226 217 249 27 352 27 c 0
 481 27 498 242 498 390 c 0
 498 530 468 740 364 740 c 0
EndSplineSet
EndChar

StartChar: one
Encoding: 49 49 18
Width: 724
Flags: MW
HStem: 0 21G<398 494 398 398> 760 20G<429 494 494 494>
VStem: 398 96<0 676 676 676>
LayerCount: 2
Fore
SplineSet
267 613 m 1
 240 645 l 1
 240 645 294 674 429 780 c 1
 494 780 l 1
 494 0 l 1
 398 0 l 1
 398 676 l 1
 267 613 l 1
EndSplineSet
EndChar

StartChar: two
Encoding: 50 50 19
Width: 724
Flags: MW
HStem: 0 86<167 167 265 470 470 503.5 166 167> 716 64<329.5 400.5>
VStem: 176 33<612 624> 474 94 537 32<130 160>
LayerCount: 2
Fore
SplineSet
176 624 m 1xf0
 206 731 275 780 382 780 c 0
 480 780 571 732 568 603 c 0xf0
 565 472 469 412 265 86 c 1
 470 86 l 2
 537 86 537 100 537 160 c 1
 569 160 l 1
 569 38 l 2xe8
 569 0 568 0 543 0 c 2
 166 0 l 1
 167 86 l 1
 440 484 474 498 474 607 c 0
 474 652 436 716 365 716 c 0
 294 716 230 687 209 612 c 1
 176 624 l 1xf0
EndSplineSet
EndChar

StartChar: three
Encoding: 51 51 20
Width: 724
Flags: MW
HStem: -13 51<292 402.5 292 414.5> 700 80<264 277 277 487>
VStem: 174 48<658 677.5> 511 82<172.5 301 157 304.5>
LayerCount: 2
Fore
SplineSet
194 780 m 1
 579 780 l 1
 579 734 l 1
 372 479 l 1
 489 479 593 363 593 239 c 0
 593 75 515 -13 314 -13 c 0
 167 -13 131 48 131 86 c 0
 131 117 154 147 196 147 c 0
 284 147 230 38 354 38 c 0
 451 38 511 108 511 237 c 0
 511 372 396 414 284 414 c 1
 282 450 l 1
 487 700 l 1
 277 700 l 2
 251 700 222 697 222 658 c 1
 174 658 l 1
 194 780 l 1
EndSplineSet
EndChar

StartChar: four
Encoding: 52 52 21
Width: 724
Flags: W
LayerCount: 2
Fore
SplineSet
406 0 m 1
 502 0 l 1
 502 207 l 1
 611 207 l 1
 611 256 l 1
 502 256 l 1
 502 780 l 1
 400 780 l 1
 130 254 l 1
 129 207 l 1
 406 207 l 1
 406 0 l 1
406 256 m 1
 173 256 l 1
 406 709 l 1
 406 256 l 1
EndSplineSet
EndChar

StartChar: five
Encoding: 53 53 22
Width: 724
Flags: MW
HStem: -13 51<305 390 305 424> 386 62 697 83<256 533 204 536 256 256>
VStem: 204 52<452 697 452 780> 491 89<174 268.5>
LayerCount: 2
Fore
SplineSet
353 38 m 0
 427 38 491 88 491 204 c 0
 491 333 456 386 204 386 c 1
 204 780 l 1
 533 780 l 1
 536 697 l 1
 256 697 l 1
 256 452 l 1
 256 452 262 451 380 448 c 0
 489 445 580 341 580 220 c 0
 580 128 496 -13 352 -13 c 0
 208 -13 147 46 147 86 c 0
 147 115 161 139 208 139 c 0
 298 139 257 38 353 38 c 0
EndSplineSet
EndChar

StartChar: six
Encoding: 54 54 23
Width: 724
Flags: MW
HStem: -13 40 442 59 742 28<500 507>
VStem: 127 93<265.999 339.72 265.999 428.999> 509 89<211.999 308.999>
LayerCount: 2
Fore
SplineSet
507 770 m 1
 231 780 127 544.999023438 127 312.999023438 c 0
 127 154.999023438 211 -13.0009765625 369 -13.0009765625 c 0
 507 -13.0009765625 598 101.999023438 598 235.999023438 c 0
 598 383.999023438 537 500.999023438 367 500.999023438 c 0
 316.83203125 500.999023438 266.967773438 475.7734375 232.3203125 453.135742188 c 1
 261.79296875 597.444335938 345.650390625 725.629882812 500 742 c 1
 507 770 l 1
223.286132812 393.732421875 m 1
 251.90234375 413.5546875 302.616210938 441.999023438 358 441.999023438 c 0
 471 441.999023438 509 353.999023438 509 263.999023438 c 0
 509 159.999023438 474 26.9990234375 374 26.9990234375 c 0
 258 26.9990234375 220 202.999023438 220 328.999023438 c 0
 220 350.44140625 221.078125 372.12109375 223.286132812 393.732421875 c 1
EndSplineSet
EndChar

StartChar: seven
Encoding: 55 55 24
Width: 724
Flags: MW
HStem: 699 81<224 489 489 489>
VStem: 149 34<608 630.5 608 780 608 630.5>
LayerCount: 2
Fore
SplineSet
222 0 m 1
 274 -13 l 1
 576 780 l 1
 149 780 l 1
 149 608 l 1
 183 608 l 1
 183 653 183 699 224 699 c 2
 489 699 l 1
 222 0 l 1
EndSplineSet
EndChar

StartChar: eight
Encoding: 56 56 25
Width: 724
Flags: MW
HStem: -13 54 731 49
VStem: 141 81 163 83 488 74 507 76
LayerCount: 2
Fore
SplineSet
366 780 m 0xc8
 255 782 163.000976562 702.999023438 163.000976562 591.999023438 c 0xd8
 163.000976562 502.190429688 211.169921875 448.7890625 271.458007812 407.0625 c 1
 201.204101562 373.311523438 141.000976562 320.45703125 141.000976562 192.999023438 c 0
 141.000976562 75.9990234375 242.000976562 -11.0009765625 359.000976562 -13.0009765625 c 0
 476.000976562 -15.0009765625 583.000976562 67.9990234375 583.000976562 183.999023438 c 0xe4
 583.000976562 323.1640625 500.9296875 377.091796875 417.790039062 419.333984375 c 1
 493.376953125 450.322265625 562 488.395507812 562 607 c 0
 562 715 476 778 366 780 c 0xc8
363.000976562 730.999023438 m 0
 444.000976562 730.999023438 488.000976562 663.999023438 488.000976562 588.999023438 c 0
 488.000976562 503.341796875 432.40625 471.836914062 365.72265625 445.233398438 c 1
 300.532226562 478.317382812 246.000976562 513.9609375 246.000976562 591.999023438 c 0
 246.000976562 662.999023438 292.000976562 730.999023438 363.000976562 730.999023438 c 0
319.919921875 376.674804688 m 1
 410.640625 323.849609375 507.000976562 281.616210938 507.000976562 179.998046875 c 0
 507.000976562 75.998046875 440.000976562 40.998046875 363.000976562 40.998046875 c 0
 289.000976562 40.998046875 222.000976562 117.998046875 222.000976562 201.998046875 c 0xe4
 222.000976562 299.857421875 264.744140625 346.047851562 319.919921875 376.674804688 c 1
EndSplineSet
EndChar

StartChar: nine
Encoding: 57 57 26
Width: 724
Flags: MW
HStem: -13 340 741 50
VStem: 125 90 507.482 89.5179
LayerCount: 2
Fore
SplineSet
350 791 m 0
 500 791 597.000976562 659.999023438 597.000976562 444.999023438 c 0
 597.000976562 203.999023438 504.000976562 -13.0009765625 232.000976562 -13.0009765625 c 0
 182.000976562 -13.0009765625 142.000976562 17.9990234375 142.000976562 53.9990234375 c 0
 142.000976562 108.999023438 193.000976562 120.999023438 219.000976562 103.999023438 c 0
 263.000976562 73.9990234375 239.000976562 37.9990234375 328.000976562 46.9990234375 c 0
 438.396484375 58.2802734375 487.755859375 213.711914062 502.762695312 362.080078125 c 1
 477.553710938 323.377929688 433.381835938 282.616210938 352 276 c 0
 231 266 125 371 125 545 c 0
 125 675 220 791 350 791 c 0
507.483398438 433.547851562 m 1
 507.833007812 444.580078125 508.000976562 455.420898438 508.000976562 465.999023438 c 0
 508.000976562 588.999023438 471.000976562 740.999023438 351.000976562 740.999023438 c 0
 258.000976562 740.999023438 215.000976562 638.999023438 215.000976562 544.999023438 c 0
 215.000976562 415.999023438 276.000976562 326.999023438 385.000976562 326.999023438 c 0
 452.208984375 326.999023438 484.010742188 378.796875 507.483398438 433.547851562 c 1
EndSplineSet
EndChar

StartChar: colon
Encoding: 58 58 27
Width: 724
Flags: MW
HStem: -13 159<346 392 346 392.5> 376 158<346 392 346 392.5>
VStem: 285 155<53 92.5 53 96 442 481.5>
LayerCount: 2
Fore
SplineSet
368 146 m 0
 416 146 440 113 440 72 c 0
 440 34 423 -13 362 -13 c 0
 318 -13 285 21 285 68 c 0
 285 124 324 146 368 146 c 0
368 534 m 0
 416 534 440 502 440 461 c 0
 440 423 423 376 362 376 c 0
 318 376 285 410 285 457 c 0
 285 513 324 534 368 534 c 0
EndSplineSet
EndChar

StartChar: semicolon
Encoding: 59 59 28
Width: 724
Flags: MW
HStem: -14 179<335.5 375> 406 159<331 377 331 378.5>
VStem: 270 156<472 511.5 472 515> 375 94<-48.5 -14>
LayerCount: 2
Fore
SplineSet
361 165 m 0xd0
 435 165 469 107 469 38 c 0
 469 -135 278 -209 278 -209 c 1
 256 -165 l 1
 256 -165 375 -130 375 -14 c 1
 296 -14 259 32 266 88 c 0
 271 129 302 165 361 165 c 0xd0
353 565 m 0
 401 565 426 532 426 491 c 0
 426 453 409 406 348 406 c 0
 304 406 270 440 270 487 c 0xe0
 270 543 309 565 353 565 c 0
EndSplineSet
EndChar

StartChar: less
Encoding: 60 60 29
Width: 724
Flags: W
LayerCount: 2
Fore
SplineSet
563 131 m 1
 563 183 l 1
 212.376953125 357.874023438 l 1
 563 531 l 1
 563 583 l 1
 162 384 l 1
 162 383 l 1
 162 333 l 1
 162 332 l 1
 563 131 l 1
EndSplineSet
EndChar

StartChar: equal
Encoding: 61 61 30
Width: 724
Flags: W
LayerCount: 2
Fore
SplineSet
563 236 m 1
 563 288 l 1
 162 289 l 1
 162 237 l 1
 563 236 l 1
563 426 m 1
 563 478 l 1
 162 479 l 1
 162 427 l 1
 563 426 l 1
EndSplineSet
EndChar

StartChar: greater
Encoding: 62 62 31
Width: 724
Flags: W
LayerCount: 2
Fore
SplineSet
162 583 m 1
 162 531 l 1
 512.623046875 356.125976562 l 1
 162 183 l 1
 162 131 l 1
 563 330 l 1
 563 331 l 1
 563 381 l 1
 563 382 l 1
 162 583 l 1
EndSplineSet
EndChar

StartChar: question
Encoding: 63 63 32
Width: 724
Flags: MW
HStem: -7 142<319 357> 545 21G<184 210.5> 716 64<331 385>
VStem: 143 111 266 147<39 76 38.5 78> 313 57<243 350 350 369 243 437.5> 470 102<624 624>
LayerCount: 2
Fore
SplineSet
143 624 m 0xf6
 143 716 241 780 372 780 c 0
 474 780 573 726 572 624 c 0
 571 449 370 469 370 369 c 2
 370 243 l 1
 313 243 l 1
 313 350 l 2
 313 525 470 432 470 624 c 0
 470 678 413 716 357 716 c 0
 305 716 232 713 254 639 c 0
 276 565 222 545 199 545 c 0
 169 545 143 585 143 624 c 0xf6
341 135 m 0
 399 135 413 91 413 61 c 0
 413 16 378 -7 336 -7 c 0
 302 -7 266 17 266 61 c 0xfa
 266 95 287 135 341 135 c 0
EndSplineSet
EndChar

StartChar: at
Encoding: 64 64 33
Width: 724
Flags: MW
HStem: -36 39<208 389> 85 45 507 35
LayerCount: 2
Fore
SplineSet
667 400 m 0
 623 112 487 81.9990234375 431 99.9990234375 c 1
 411.327148438 112.209960938 401.778320312 130.86328125 401.10546875 150.65234375 c 1
 368.75 112.592773438 329.232421875 85 283 85 c 0
 205 85 154 172 193 297 c 0
 241 451 301 542 417 542 c 0
 459.712890625 542 485.422851562 527.770507812 500.788085938 509.194335938 c 1
 549 520 l 1
 549 520 510 359 467 225 c 0
 450 171 453 133 478 133 c 0
 545 133 591 232 618 400 c 0
 645 572 524 619 418 612 c 0
 235 600 151 491 117 337 c 0
 89 209 104 3 312 3 c 0
 475 3 599 96 599 96 c 1
 619 74 l 1
 619 74 470 -36 308 -36 c 0
 85 -36 32 138 60 324 c 0
 88 511 202 656 441 662 c 0
 565 665 694 575 667 400 c 0
413 506.999023438 m 0
 354 506.999023438 308 462.999023438 249 291.999023438 c 0
 210 177.999023438 253 129.999023438 290 129.999023438 c 0
 327.729492188 129.999023438 400.754882812 150.748046875 456 351.999023438 c 0
 484 453.999023438 480.162109375 506.999023438 413 506.999023438 c 0
EndSplineSet
EndChar

StartChar: A
Encoding: 65 65 34
Width: 724
Flags: MW
HStem: 0 38<41 60.5 188.5 208 41 60.5> 17 33<658 665> 229 40<209.539 436.747 209.539 449.126 197.617 436.747> 743 20G<301 370 370 370>
LayerCount: 2
Fore
SplineSet
155 86 m 2x70
 140 38 169 38 208 38 c 1
 208 0 l 1
 41 0 l 1
 41 38 l 1xb0
 80 38 84 42 101 86 c 2
 301 763 l 1
 370 763 l 1
 590 71 l 2
 598 50 602 35 658 50 c 1
 665 17 l 1
 604 -3 584 -6 556 -6 c 0
 528 -6 518 13 507 42 c 2
 449.125976562 229 l 1
 197.6171875 229 l 1
 155 86 l 2x70
209.5390625 269 m 1
 436.747070312 269 l 1
 321 643 l 1
 209.5390625 269 l 1
EndSplineSet
EndChar

StartChar: B
Encoding: 66 66 35
Width: 724
Flags: MW
HStem: 0 38<115 134.5 115 236> 371.956 50.0444 727 36<290 328 114 372>
VStem: 173 84<64 371.955 86 371.955 422 677> 491 91<518.5 612> 529 95<148 256 125 260.5>
LayerCount: 2
Fore
SplineSet
328 763 m 2xf8
 114 763 l 1
 114 726 l 1
 163 726 173 725 173 677 c 2
 173 86 l 2
 173 42 154 38 115 38 c 1
 115 0 l 1
 236 0 l 1
 465 -13 624 37 624 213 c 0xf4
 624 299 550 365 425 400 c 1
 490 414 582 472 582 565 c 0
 582 716 459 763 328 763 c 2xf8
257 422 m 1
 257 677 l 2
 257 716 258 727 322 727 c 0
 422 727 491 662 491 562 c 0xf8
 491 441 405 422 336 422 c 2
 257 422 l 1
257 371.955078125 m 1
 281.217773438 371.76171875 299.561523438 371 324 371 c 0
 466 365 529 311 529 210 c 0xf4
 529 86 455 34 344 38 c 0
 289 40 257 52 257 86 c 2
 257 371.955078125 l 1
EndSplineSet
EndChar

StartChar: C
Encoding: 67 67 36
Width: 724
Flags: MW
HStem: -14 52<334.5 465> 714 49<313.5 478>
VStem: 96 105<249 395 249 436.5> 572 34<597 634.5>
LayerCount: 2
Fore
SplineSet
425 763 m 0
 546 763 606 721 606 721 c 1
 606 597 l 1
 572 597 l 1
 572 672 537 714 419 714 c 0
 208 714 201 479 201 311 c 0
 201 187 272 38 397 38 c 0
 607 38 583 186 583 186 c 1
 629 186 l 1
 629 59 l 1
 629 59 549 -14 381 -14 c 0
 188 -14 96 159 96 328 c 0
 96 545 147 763 425 763 c 0
EndSplineSet
EndChar

StartChar: D
Encoding: 68 68 37
Width: 724
Flags: MW
HStem: 0 35<316 327 316 393> 716 47<289 307 307 371> 726 37<94 118.5>
VStem: 153 84<86 677> 549 95<309 481.5 241.5 518>
LayerCount: 2
Fore
SplineSet
237 677 m 2xd8
 237 86 l 2
 237 38 305 35 327 35 c 0
 546 38 549 208 549 410 c 0
 549 626 437 716 305 716 c 0
 273 716 237 721 237 677 c 2xd8
393 0 m 2
 95 0 l 1
 95 38 l 1
 134 38 153 42 153 86 c 2
 153 677 l 2
 153 725 143 726 94 726 c 1
 94 763 l 1xb8
 307 763 l 2
 563 763 644 618 644 345 c 0
 644 138 570 0 393 0 c 2
EndSplineSet
EndChar

StartChar: E
Encoding: 69 69 38
Width: 724
Flags: MW
HStem: 0 38<103 127.5 280.5 292 292 513> 380 50<280 282 282 448> 726 37<104 123.5 300 473 473 526.5>
VStem: 173 84<62 357 86 357 357 367.5 479 677> 522 36<304 321> 589 35<134.5 183>
LayerCount: 2
Fore
SplineSet
522 304 m 1
 558 304 l 1
 558 499 l 1
 526 499 l 1
 526 476 519 430 448 430 c 2
 282 430 l 2
 260 430 257 462 257 479 c 2
 257 677 l 2
 257 716 300 726 300 726 c 1
 473 726 l 2
 580 726 584 657 584 620 c 1
 620 620 l 1
 619 763 l 1
 104 763 l 1
 104 726 l 1
 143 726 173 721 173 677 c 2
 173 86 l 2
 173 38 152 38 103 38 c 1
 103 0 l 1
 624 0 l 1
 624 183 l 1
 589 183 l 1
 589 86 578 38 513 38 c 2
 292 38 l 2
 269 38 257 48 257 86 c 2
 257 357 l 2
 257 378 268 380 280 380 c 2
 450 380 l 2
 512 380 522 338 522 304 c 1
EndSplineSet
EndChar

StartChar: F
Encoding: 70 70 39
Width: 724
Flags: MW
HStem: 0 38<105 129.5 105 329 105 129.5> 380 50<276 450 284 450 450 452> 726 37<106 125.5 287.5 302 302 475>
VStem: 175 84<86 357 465 479 479 677> 524 36<284 301> 586 36<620 638.5>
LayerCount: 2
Fore
SplineSet
524 284 m 1
 524 318 514 380 452 380 c 2
 282 380 l 2
 270 380 259 378 259 357 c 2
 259 86 l 2
 259 42 274 37 329 38 c 1
 329 0 l 1
 105 0 l 1
 105 38 l 1
 154 38 175 38 175 86 c 2
 175 677 l 2
 175 721 145 726 106 726 c 1
 106 763 l 1
 621 763 l 1
 622 620 l 1
 586 620 l 1
 586 657 582 726 475 726 c 2
 302 726 l 2
 273 726 259 716 259 677 c 2
 259 479 l 2
 259 451 260 430 284 430 c 2
 450 430 l 2
 521 430 528 479 528 502 c 1
 560 502 l 1
 560 284 l 1
 524 284 l 1
EndSplineSet
EndChar

StartChar: G
Encoding: 71 71 40
Width: 724
Flags: MW
HStem: -14 52<345.5 454.5 345.5 477> 301 35<434 494.5> 714 49<324.5 489>
VStem: 107 105<249 400 249 436.5> 554 63<153 269.5> 584 33<597 634.5>
LayerCount: 2
Fore
SplineSet
617 343 m 1xf4
 434 336 l 1
 434 301 l 1
 555 301 554 301 554 238 c 0xf8
 554 68 501 38 408 38 c 0
 283 38 212 187 212 311 c 0
 212 489 219 714 430 714 c 0
 548 714 584 672 584 597 c 1
 617 597 l 1
 617 721 l 1
 617 721 558 763 437 763 c 0
 159 763 107 545 107 328 c 0
 107 159 200 -14 393 -14 c 0
 561 -14 518 59 617 59 c 1
 617 343 l 1xf4
EndSplineSet
EndChar

StartChar: H
Encoding: 72 72 41
Width: 710
Flags: MW
HStem: 0 38<47 66.5 230.5 250 47 66.5 439 458.5 623.5 643> 379 57<188 497 188 497> 726 37<46 70.5 46 258 438 462.5>
VStem: 104 84<86 379 436 677> 497 84<86 379 379 379 436 677>
LayerCount: 2
Fore
SplineSet
104 677 m 2
 104 725 95 726 46 726 c 1
 46 763 l 1
 258 763 l 1
 258 726 l 1
 203 727 188 721 188 677 c 2
 188 436 l 1
 497 436 l 1
 497 677 l 2
 497 725 487 726 438 726 c 1
 438 763 l 1
 652 763 l 1
 652 726 l 1
 597 727 581 721 581 677 c 2
 581 86 l 2
 581 38 604 38 643 38 c 1
 643 0 l 1
 439 0 l 1
 439 38 l 1
 478 38 497 42 497 86 c 2
 497 379 l 1
 188 379 l 1
 188 86 l 2
 188 38 211 38 250 38 c 1
 250 0 l 1
 47 0 l 1
 47 38 l 1
 86 38 104 42 104 86 c 2
 104 677 l 2
EndSplineSet
EndChar

StartChar: I
Encoding: 73 73 42
Width: 724
Flags: MW
HStem: 0 38<512 542 207 207> 726 37<211 241 211 540>
VStem: 333 84<86 677>
LayerCount: 2
Fore
SplineSet
333 677 m 2
 333 725 271 726 211 726 c 1
 211 763 l 1
 540 763 l 1
 540 726 l 1
 453 727 417 721 417 677 c 2
 417 86 l 2
 417 38 482 38 542 38 c 1
 542 0 l 1
 207 0 l 1
 207 38 l 1
 294 37 333 42 333 86 c 2
 333 677 l 2
EndSplineSet
EndChar

StartChar: J
Encoding: 74 74 43
Width: 724
Flags: MW
HStem: -13 51<219.5 324 207.5 331.5> 726 37<301 331 301 630>
VStem: 70 122 423 84<176 239 239 656>
LayerCount: 2
Fore
SplineSet
423 677 m 2
 423 725 361 726 301 726 c 1
 301 763 l 1
 630 763 l 1
 630 726 l 1
 543 727 507 719 507 656 c 2
 507 239 l 2
 507 58 390 -13 273 -13 c 0
 166 -13 70 39 70 173 c 0
 70 197 86 227 123 227 c 0
 159 227 196 198 192 167 c 0
 186 121 140 38 275 38 c 0
 373 38 423 102 423 176 c 2
 423 677 l 2
EndSplineSet
EndChar

StartChar: K
Encoding: 75 75 44
Width: 724
Flags: MW
HStem: 0 38<86 105.5 283.5 303 86 105.5> 726 37<99 123.5 99 311>
VStem: 157 84<86 381.632 427.215 677>
LayerCount: 2
Fore
SplineSet
157 677 m 2
 157 725 148 726 99 726 c 1
 99 763 l 1
 311 763 l 1
 311 726 l 1
 256 727 241 721 241 677 c 2
 241 427.21484375 l 1
 439 665 l 2
 469 706 455 727 428 727 c 1
 428 763 l 1
 653 763 l 1
 653 729 l 1
 564 729 544 716 503 669 c 2
 320 443 l 1
 565 71 l 1
 565 71 582 35 634 50 c 1
 640 17 l 1
 593 -3 582 -6 554 -6 c 0
 526 -6 485 5 464 42 c 2
 241 381.631835938 l 1
 241 86 l 2
 241 38 264 38 303 38 c 1
 303 0 l 1
 86 0 l 1
 86 38 l 1
 125 38 157 42 157 86 c 2
 157 677 l 2
EndSplineSet
EndChar

StartChar: L
Encoding: 76 76 45
Width: 724
Flags: MW
HStem: 0 38<116 135.5 312 436.5> 726 37<115 139.5 115 339>
VStem: 185 84<64 677 86 677> 576 36<136 234>
LayerCount: 2
Fore
SplineSet
269 86 m 2
 269 677 l 2
 269 721 284 727 339 726 c 1
 339 763 l 1
 115 763 l 1
 115 726 l 1
 164 726 185 725 185 677 c 2
 185 86 l 2
 185 42 155 38 116 38 c 1
 116 0 l 1
 608 0 l 1
 612 234 l 1
 576 234 l 1
 576 38 561 38 312 38 c 1
 312 38 269 38 269 86 c 2
EndSplineSet
EndChar

StartChar: M
Encoding: 77 77 46
Width: 724
Flags: MW
HStem: 0 38<488 507.5 671.5 691> 726 37<700 700>
VStem: 82 48<63.999 598.72 85.999 598.72 85.999 703.379> 545 84<64 677 86 636>
LayerCount: 2
Fore
SplineSet
164 763 m 1
 25.0009765625 762.999023438 l 1
 25.0009765625 725.999023438 l 1
 56.0966796875 725.999023438 70.02734375 719.641601562 82 703.37890625 c 1
 82 85.9990234375 l 2
 82 41.9990234375 64 37.9990234375 25 37.9990234375 c 1
 25 -0.0009765625 l 1
 192 -0.0009765625 l 1
 192 37.9990234375 l 1
 153 37.9990234375 130 37.9990234375 130 85.9990234375 c 2
 130 598.719726562 l 1
 212.633789062 407.004882812 329 135 329 135 c 1
 366 135 l 1
 545 636 l 1
 545 86 l 2
 545 42 527 38 488 38 c 1
 488 0 l 1
 691 0 l 1
 691 38 l 1
 652 38 629 38 629 86 c 2
 629 677 l 2
 629 721 645 727 700 726 c 1
 700 763 l 1
 544 763 l 2
 539 763 531 753 523 731 c 2
 362 262 l 1
 164 763 l 1
EndSplineSet
EndChar

StartChar: N
Encoding: 78 78 47
Width: 724
Flags: MW
HStem: 0 38<89 108.5 234.5 254> 726 37<74 93.5 476 500.5>
VStem: 147 45<64 628 86 628 86 677> 535 45<158.44 677 158.44 158.44>
LayerCount: 2
Fore
SplineSet
580 86 m 2
 580 677 l 2
 580 721 596 727 651 726 c 1
 651 763 l 1
 476 763 l 1
 476 726 l 1
 525 726 535 725 535 677 c 2
 535 158.440429688 l 1
 205 763 l 1
 74 763 l 1
 74 726 l 1
 113 726 147 725 147 677 c 2
 147 86 l 2
 147 42 128 38 89 38 c 1
 89 0 l 1
 254 0 l 1
 254 38 l 1
 215 38 192 38 192 86 c 2
 192 628 l 1
 536 0 l 1
 579 0 l 1
 580 76 l 1
 579.422851562 77.05859375 l 2
 579.798828125 79.80859375 580 82.7880859375 580 86 c 2
EndSplineSet
EndChar

StartChar: O
Encoding: 79 79 48
Width: 702
Flags: MW
HStem: -14 53<327.5 446.5 327.5 448.5> 724 48<264 397>
VStem: 563 90<252.5 442 252.5 443>
LayerCount: 2
Fore
SplineSet
376 772 m 0
 97 772 24.9892578125 542.735351562 56 314 c 0
 78.3525390625 149.123046875 190 -14 353 -14 c 0
 544 -14 653 153 653 352 c 0
 653 532 595 772 376 772 c 0
319 724 m 0
 475 724 563 541 563 345 c 0
 563 160 499 39 394 39 c 0
 261 39 171.3359375 203.009765625 154 318 c 0
 110.998046875 603.236328125 209 724 319 724 c 0
EndSplineSet
EndChar

StartChar: P
Encoding: 80 80 49
Width: 724
Flags: MW
HStem: 0 38<108 127.5 292.5 312> 271 50<334.508 402 334.508 414> 716 47<107 388> 726 37<107 131.5>
VStem: 166 84<64 299.123 86 299.123 364.682 677> 536 95<479 596>
LayerCount: 2
Fore
SplineSet
321 763 m 2xec
 107 763 l 1
 107 726 l 1xdc
 156 726 166 725 166 677 c 2
 166 86 l 2
 166 42 147 38 108 38 c 1
 108 0 l 1
 312 0 l 1
 312 38 l 1
 273 38 250 38 250 86 c 2
 250 299.123046875 l 1
 284.151367188 272.41796875 312.114257812 271 350 271 c 0
 478 271 631 359 631 545 c 0
 631 716 486 763 321 763 c 2xec
250 364.681640625 m 1
 250 677 l 2
 250 721 303 716 341 716 c 0xec
 435 716 536 647 536 545 c 0
 536 413 449 321 355 321 c 0
 314.016601562 321 292.110351562 317.682617188 250 364.681640625 c 1
EndSplineSet
EndChar

StartChar: Q
Encoding: 81 81 50
Width: 724
Flags: HMWO
HStem: -12.896 48.896 692 59<298 429>
VStem: 68 92 571 86<279.26 438.5>
LayerCount: 2
Fore
SplineSet
380 773 m 0
 111 773 58 556 68 337 c 0
 75.8828125 173.43359375 171.145507812 -8.2490234375 349.005859375 -12.896484375 c 1
 498 -195 l 2
 543 -245 543 -245 599 -244 c 0
 659 -244 632 -220 632 -220 c 1
 632 -220 610.9609375 -197.20703125 437.557617188 -3.880859375 c 1
 604.454101562 36.7177734375 657 227.520507812 657 375 c 0
 657 555 590 773 380 773 c 0
363 720 m 0
 495 720 571 553 571 368 c 0
 571 183 496 38 365 38 c 0
 198 38 160 274 160 341 c 0
 160 580 233 720 363 720 c 0
EndSplineSet
EndChar

StartChar: R
Encoding: 82 82 51
Width: 724
Flags: MW
HStem: 0 38<80 99.5 264.5 284 80 99.5> 330.163 46.3875 726 37<79 103.5>
VStem: 138 84<86 330.163 376.55 677> 472 84<484.264 583.5>
LayerCount: 2
Fore
SplineSet
222 330.163085938 m 1
 222 86 l 2
 222 38 245 38 284 38 c 1
 284 0 l 1
 80 0 l 1
 80 38 l 1
 119 38 138 42 138 86 c 2
 138 677 l 2
 138 725 128 726 79 726 c 1
 79 763 l 1
 345 763 l 2
 520 763 556 624 556 545 c 0
 556 423.528320312 486.092773438 370.686523438 396.416015625 347.69921875 c 1
 572 71 l 1
 572 71 601 35 653 50 c 1
 659 17 l 1
 612 -3 609 -6 581 -6 c 0
 553 -6 512 5 491 42 c 2
 309.204101562 333.806640625 l 1
 280.071289062 331.331054688 250.551757812 330.465820312 222 330.163085938 c 1
222 376.549804688 m 1
 384.276367188 380.87109375 472 412.748046875 472 545 c 0
 472 622 418 729 292 729 c 0
 258 729 222 721 222 677 c 2
 222 376.549804688 l 1
EndSplineSet
EndChar

StartChar: S
Encoding: 83 83 52
Width: 724
Flags: MW
HStem: -13 51<291.5 396> 714 49
VStem: 101 44<209 209> 103 93<473.5 612.5> 520 33<597 634.5> 531 93<150.5 294>
LayerCount: 2
Fore
SplineSet
366 714 m 0xd4
 484 712 520 672 520 597 c 1
 553 597 l 1
 553 721 l 1
 553 721 494 763 373 763 c 0
 198 763 103 680 103 545 c 0xd8
 103 294 531 387 531 201 c 0
 531 100 464 38 328 38 c 0
 230 38 145 86 145 211 c 1
 101 209 l 1xe4
 103 38 l 1
 177 -12 245 -13 338 -13 c 0
 487 -13 624 65 624 215 c 0
 624 488 196 365 196 582 c 0
 196 667 260 716 366 714 c 0xd4
EndSplineSet
EndChar

StartChar: T
Encoding: 84 84 53
Width: 724
Flags: MW
HStem: 0 38<264 283.5 447.5 467> 716 47<192 269.5 473.5 541>
VStem: 95 65<581 625.5 581 763 581 625.5> 322 83<64 677 86 677> 591 53<579 619>
LayerCount: 2
Fore
SplineSet
644 763 m 1
 95 763 l 1
 95 581 l 1
 160 581 l 1
 160 670 167 716 217 716 c 0
 322 716 322 716 322 677 c 2
 322 86 l 2
 322 42 303 38 264 38 c 1
 264 0 l 1
 467 0 l 1
 467 38 l 1
 428 38 405 38 405 86 c 2
 405 677 l 2
 405 716 406 716 541 716 c 0
 580 714 591 659 591 579 c 1
 644 579 l 1
 644 763 l 1
EndSplineSet
EndChar

StartChar: U
Encoding: 85 85 54
Width: 724
Flags: MW
HStem: -13 65<304.5 439.5 304.5 476> 726 37<68.5 93 68.5 281.5 451.5 476>
VStem: 127.5 84<216 677 275 677> 510.5 84<232 677 275 677>
LayerCount: 2
Fore
SplineSet
211.5 275 m 2
 211.5 677 l 2
 211.5 721 226.5 727 281.5 726 c 1
 281.5 763 l 1
 68.5 763 l 1
 68.5 726 l 1
 117.5 726 127.5 725 127.5 677 c 2
 127.5 275 l 2
 127.5 157 147.5 -13 373.5 -13 c 0
 578.5 -13 594.5 153 594.5 275 c 2
 594.5 677 l 2
 594.5 721 609.5 727 664.5 726 c 1
 664.5 763 l 1
 451.5 763 l 1
 451.5 726 l 1
 500.5 726 510.5 725 510.5 677 c 2
 510.5 275 l 2
 510.5 189 505.5 52 373.5 52 c 0
 235.5 52 211.5 174 211.5 275 c 2
EndSplineSet
EndChar

StartChar: V
Encoding: 86 86 55
Width: 724
Flags: MW
HStem: 726 37<37 60.5 37 264 463 482>
LayerCount: 2
Fore
SplineSet
582 679 m 1
 598 715 643 725 687 726 c 1
 687 763 l 1
 463 763 l 1
 463 726 l 1
 501 726 531 716 521 679 c 2
 356 86 l 1
 194 677 l 2
 181 720 198 727 264 726 c 1
 264 763 l 1
 37 763 l 1
 37 726 l 1
 84 726 81 725 96 677 c 2
 282 14 l 2
 285 3 287 0 297 0 c 2
 366 0 l 2
 380 0 375 0 390 38 c 2
 582 679 l 1
EndSplineSet
EndChar

StartChar: W
Encoding: 87 87 56
Width: 724
Flags: MW
HStem: 726 37<25 46.5 25 220 536 555>
LayerCount: 2
Fore
SplineSet
478 14 m 2
 481 3 482 0 492 0 c 2
 524 0 l 2
 538 0 535 0 539 38 c 2
 626 679 l 1
 636 715 656 725 700 726 c 1
 700 763 l 1
 536 763 l 1
 536 726 l 1
 574 726 580 716 576 679 c 2
 514 153 l 1
 381 681 l 1
 350 681 l 1
 211 169 l 1
 163 677 l 2
 160 720 166 727 220 726 c 1
 220 763 l 1
 25 763 l 1
 25 726 l 1
 68 726 71 725 76 677 c 2
 144 14 l 2
 147 3 148 0 158 0 c 2
 196 0 l 2
 210 0 208 0 220 38 c 2
 341 504 l 1
 478 14 l 2
EndSplineSet
EndChar

StartChar: X
Encoding: 88 88 57
Width: 724
Flags: MW
HStem: 0 38<65 84.5 262.5 282 65 84.5> 17 33<653 659> 726 37<74 93.5 427 446>
LayerCount: 2
Fore
SplineSet
585 71 m 2xa0
 600 47 602 37 653 50 c 1
 659 17 l 1x60
 598 -3 570 -6 531 -6 c 0
 513 -6 497 13 483 42 c 2
 483 42 420.512695312 171.122070312 348.89453125 319.745117188 c 1
 220 86 l 1
 188 38 243 38 282 38 c 1
 282 0 l 1
 65 0 l 1
 65 38 l 1
 104 38 122 42 154 86 c 1
 319.28515625 381.223632812 l 1
 263.301757812 497.532226562 206.22265625 616.528320312 172 689 c 1
 149 722 113 726 74 726 c 1
 74 763 l 1
 256 763 l 1
 383.217773438 495.416992188 l 1
 486 679 l 1
 502 716 465 726 427 726 c 1
 427 763 l 1
 652 763 l 1
 652 726 l 1
 608 725 569 715 547 679 c 2
 412.177734375 434.504882812 l 1
 585 71 l 2xa0
EndSplineSet
EndChar

StartChar: Y
Encoding: 89 89 58
Width: 724
Flags: MW
HStem: 0 38<229 248.5 454.5 474> 729 34<622.5 667>
VStem: 307 84<64 331.583 86 331.583 86 333>
LayerCount: 2
Fore
SplineSet
307 86 m 2
 307 42 268 38 229 38 c 1
 229 0 l 1
 474 0 l 1
 474 38 l 1
 435 38 391 38 391 86 c 2
 391 331.583007812 l 1
 545 652 l 1
 577 699 578 729 667 729 c 1
 667 763 l 1
 442 763 l 1
 442 727 l 1
 534 727 502 689 481 648 c 2
 364.251953125 411.171875 l 1
 190 763 l 1
 58 763 l 1
 58 726 l 1
 98 726 106 716 122 687 c 2
 307 333 l 1
 307 86 l 2
EndSplineSet
EndChar

StartChar: Z
Encoding: 90 90 59
Width: 724
Flags: MW
HStem: 0 76<208 463 463 494.5 208 595> 692 71<219.5 232 232 358 358 492>
VStem: 162 38<603 627 603 672.5> 558 47<151 216>
LayerCount: 2
Fore
SplineSet
358 763 m 1
 572 763 l 1
 572 715 l 1
 208 76 l 1
 463 76 l 2
 526 76 558 86 558 216 c 1
 605 216 l 1
 595 0 l 1
 120 0 l 1
 119 38 l 1
 492 692 l 1
 232 692 l 2
 207 692 200 651 200 603 c 1
 162 603 l 1
 162 742 166 763 201 763 c 2
 358 763 l 1
EndSplineSet
EndChar

StartChar: bracketleft
Encoding: 91 91 60
Width: 724
Flags: MW
HStem: -185 38<436 466> 753 38<259 464>
VStem: 259 82<-99 705 705 727 -99 791>
LayerCount: 2
Fore
SplineSet
466 -185 m 1
 466 -147 l 1
 406 -147 341 -147 341 -99 c 2
 341 705 l 2
 341 749 377 754 464 753 c 1
 464 791 l 1
 259 791 l 1
 259 -186 l 1
 466 -185 l 1
EndSplineSet
EndChar

StartChar: backslash
Encoding: 92 92 61
Width: 724
Flags: W
LayerCount: 2
Fore
SplineSet
554 -99 m 1
 503 -111 l 1
 170 763 l 1
 222 776 l 1
 554 -99 l 1
EndSplineSet
EndChar

StartChar: bracketright
Encoding: 93 93 62
Width: 724
Flags: MW
HStem: -185 38<259 289> 753 38<261 466>
VStem: 384 82<-99 705 705 727>
LayerCount: 2
Fore
SplineSet
259 -185 m 1
 259 -147 l 1
 319 -147 384 -147 384 -99 c 2
 384 705 l 2
 384 749 348 754 261 753 c 1
 261 791 l 1
 466 791 l 1
 466 -186 l 1
 259 -185 l 1
EndSplineSet
EndChar

StartChar: asciicircum
Encoding: 94 94 63
Width: 724
Flags: MW
HStem: 691 107<346 358 358 369>
LayerCount: 2
Fore
SplineSet
142 624 m 1
 330 819 321 798 342 798 c 2
 376 798 l 2
 393 798 383 809 583 625 c 1
 525 590 l 1
 386 680 387 691 369 691 c 2
 358 691 l 2
 334 691 323 681 191 582 c 1
 142 624 l 1
EndSplineSet
EndChar

StartChar: underscore
Encoding: 95 95 64
Width: 724
Flags: W
LayerCount: 2
Fore
SplineSet
647 -1 m 1
 647 50 l 1
 78 51 l 1
 78 0 l 1
 647 -1 l 1
EndSplineSet
EndChar

StartChar: grave
Encoding: 96 96 65
Width: 724
Flags: MW
HStem: 684 81
LayerCount: 2
Fore
SplineSet
666 586 m 1
 647 556 l 1
 647 556 416 646 316 684 c 0
 295 692 289 711 290 724 c 0
 293 755 311 765 344 765 c 0
 400 765 666 586 666 586 c 1
EndSplineSet
EndChar

StartChar: a
Encoding: 97 97 66
Width: 662
Flags: MW
HStem: -12 53<246 283.941> 247.994 42.0039 506 40<337 369.5 287 381>
VStem: 94 101<106.5 171.583 106.5 176.264> 128 96 419 98<156.928 247.994 247.994 247.994 289.998 395 395 406>
LayerCount: 2
Fore
SplineSet
128 417 m 0xec
 149 485 238 546 336 546 c 0
 403 546 517 535 517 406 c 2
 517 121 l 2
 517 88 518 74 547 76 c 0
 568 78 614 97 614 97 c 1
 618.961914062 66.2333984375 l 2
 617.018554688 71.408203125 567 -13 485 -13 c 0
 439.391601562 -13 424.741210938 34.4375 420.448242188 64.98046875 c 1
 386.811523438 13.955078125 324.8828125 -12 243 -12 c 0
 140 -11 94 43 94 110 c 0xf4
 94 242.528320312 232.014648438 289.665039062 419 289.998046875 c 1
 419 395 l 2
 419 454 425 506 337 506 c 0
 244 505 235 443 224 404 c 0
 213 358 197 345 165 354 c 0
 144 362 120 378 128 417 c 0xec
618.961914062 66.2333984375 m 2
 619 66 l 2
 619 66.0888671875 618.987304688 66.1669921875 618.961914062 66.2333984375 c 2
419 156.927734375 m 1
 419 247.994140625 l 1
 300.22265625 247.561523438 195 221.166015625 195 122 c 0
 195 91 217 41 275 41 c 0
 358.778320312 41 405.545898438 93.705078125 419 156.927734375 c 1
629.961914062 66.2333984375 m 2
 630 66.0009765625 l 2
 630 66.08984375 629.987304688 66.1669921875 629.961914062 66.2333984375 c 2
EndSplineSet
EndChar

StartChar: b
Encoding: 98 98 67
Width: 724
Flags: MW
HStem: -10 35<335.5 355 335.5 452> 468 63<394 416.5>
VStem: 179 98<76 418.024 477 690 38 418.024> 537 94<196 341.5>
LayerCount: 2
Fore
SplineSet
277 477 m 1
 277 712 l 2
 277 752 270 780 232 780 c 0
 202 780 103 742 103 742 c 1
 116 716 l 1
 151 716 179 715 179 690 c 2
 179 38 l 1
 239 1 291 -10 360 -10 c 0
 544 -10 631 113 631 279 c 0
 631 426 556 531 417 531 c 0
 371 531 321 511 277 477 c 1
277 418.024414062 m 1
 298.698242188 450.125 326.352539062 468 370 468 c 0
 463 468 537 407 537 276 c 0
 537 109 459 26 355 25 c 0
 316 25 277 53 277 76 c 2
 277 418.024414062 l 1
EndSplineSet
EndChar

StartChar: c
Encoding: 99 99 68
Width: 724
Flags: MW
HStem: -13 76<361 419> 497 48<304 381.5>
LayerCount: 2
Fore
SplineSet
365 545 m 0
 466 545 581 519 581 464 c 0
 581 424 547 405 518 405 c 0
 480 405 470 448 434 472 c 0
 414 485 402 497 361 497 c 0
 192 497 178 351 198 251 c 0
 220 130 297 63 425 63 c 0
 495 63 534 85 586 120 c 1
 610 100 l 1
 555 29 465 -13 373 -13 c 0
 213 -13 114 130 114 256 c 0
 114 449 243 545 365 545 c 0
EndSplineSet
EndChar

StartChar: d
Encoding: 100 100 69
Width: 724
Flags: MW
HStem: -14 66<288 327.816> -1 21G<504.553 522> 525 20G<245.5 360.311> 716 27<351 361> 722 58
VStem: 80 84<191.5 332.5> 460 100<166.301 426.337 426.337 426.337 508.473 676 676 686>
LayerCount: 2
Fore
SplineSet
460 676 m 2xa6
 460 696 449 722 416 722 c 2xae
 416 722 391 721 361 716 c 1
 351 743 l 1x36
 426 766 477 780 506 780 c 0x2e
 541 780 560 766 560 716 c 2
 560 118 l 2
 560 85 561 68 590 70 c 0
 611 72 650 94 650 94 c 1
 662 63 l 1
 662 63 599 0 522 -1 c 0x76
 487.10546875 -1 466.336914062 29.8173828125 461.71875 60.029296875 c 1
 422.693359375 16.05859375 369.6328125 -14 286 -14 c 0
 195 -14 80 86 80 256 c 0
 80 409 160 545 331 545 c 0
 389.622070312 545 430.9921875 529.104492188 460 508.47265625 c 1
 460 676 l 2xa6
383 495 m 0
 261 539 164 457 164 251 c 0
 164 132 248 52 328 52 c 0
 408.692382812 52 445.53125 94.833984375 460 166.30078125 c 1
 460 426.336914062 l 1
 451.592773438 454.438476562 431.415039062 477.708984375 383 495 c 0
EndSplineSet
EndChar

StartChar: e
Encoding: 101 101 70
Width: 724
Flags: MW
HStem: -13 62<351.5 446> 271 53<523 597.5> 504 41<372 415.5>
VStem: 110 94.8906 523 92<324 362>
LayerCount: 2
Fore
SplineSet
583 156 m 1
 608 143 l 1
 582 79 522 -13 370 -13 c 0
 252 -13 110 71 110 281 c 0
 110 406 187 545 382 545 c 0
 523 545 615 450 615 322 c 0
 614 277 620 271 575 271 c 2
 204.890625 271.974609375 l 1
 206.177734375 249.26953125 210.083984375 234.215820312 217 209 c 0
 249 121 291 49 412 49 c 0
 498 49 566 129 583 156 c 1
205.826171875 325.87890625 m 1
 523 324 l 1
 523 400 459 504 372 504 c 0
 288.001953125 503.243164062 217.021484375 434.9140625 205.826171875 325.87890625 c 1
EndSplineSet
EndChar

StartChar: f
Encoding: 102 102 71
Width: 724
Flags: MW
HStem: 0 38<131 174.5 470.5 511 131 174.5> 465 53<439 537>
VStem: 255 98<536 538 465 601>
LayerCount: 2
Fore
SplineSet
355 86 m 2
 355 38 430 38 511 38 c 1
 511 0 l 1
 131 0 l 1
 131 38 l 1
 218 38 257 42 257 86 c 2
 256 467 l 1
 127 468 l 1
 127 518 l 1
 248 518 255 518 255 536 c 2
 255 601 l 2
 255 704 303 800 479 785 c 0
 531 781 578 766 603 720 c 0
 619 688 585 664 549 664 c 0
 487 664 471 729 410 737 c 0
 371 742 353 701 352 653 c 2
 353 538 l 2
 353 518 341 518 537 518 c 1
 537 465 l 1
 353 465 l 1
 355 86 l 2
EndSplineSet
EndChar

StartChar: g
Encoding: 103 103 72
Width: 724
Flags: MW
VStem: 110 86 507 95
LayerCount: 2
Fore
SplineSet
363 545 m 0
 259 545 162.000976562 467 167.000976562 363 c 0
 169.999023438 302.43359375 200.686523438 245.823242188 247.418945312 210.204101562 c 1
 212.295898438 178.809570312 183.466796875 144.9609375 191.000976562 112 c 0
 196.029296875 91.232421875 213.959960938 76.486328125 238.912109375 65.1396484375 c 1
 176.58203125 25.0419921875 110 -35.201171875 110 -72 c 0
 110 -153 220 -191 317 -191 c 0
 429 -191 602 -126 602 -41 c 0
 602 115 252 51 261 153 c 0
 262.853515625 170.60546875 270.716796875 184.776367188 299.70703125 181.98828125 c 1
 318.288085938 175.534179688 338.192382812 172 359 172 c 0
 464 172 553 247 547 352 c 0
 544.045898438 405.588867188 530.587890625 448.31640625 507.676757812 479.807617188 c 1
 522.567382812 481.221679688 558.836914062 484 614 484 c 1
 615 529 l 1
 561.213867188 525.291015625 490.228515625 516.421875 449.095703125 527.912109375 c 1
 424.548828125 539.26171875 395.73046875 545 363 545 c 0
312.000976562 497 m 0
 393.000976562 518 447.000976562 429 452.000976562 355 c 0
 457.000976562 293 443.000976562 245 403.000976562 227 c 0
 302.000976562 182 261.000976562 308 254.000976562 356 c 0
 245.000976562 421 252.000976562 481 312.000976562 497 c 0
294.028320312 46.8115234375 m 1
 386.536132812 23.154296875 507.000976562 14.2734375 507.000976562 -46 c 0
 507.000976562 -82 468.000976562 -99 438.000976562 -113 c 0
 356.000976562 -150 196.000976562 -132 196.000976562 -51 c 0
 196.000976562 -23.8955078125 225.048828125 14.453125 294.028320312 46.8115234375 c 1
EndSplineSet
EndChar

StartChar: h
Encoding: 104 104 73
Width: 724
Flags: MW
HStem: 0 38<111 141 296 315 111 141 443 466 625 644> 491 54<413.537 420> 760 20G<184 211>
VStem: 175 98<670 745> 495 95<86 356 356 359>
LayerCount: 2
Fore
SplineSet
495 356 m 2
 495 465 439 491 401 491 c 0
 342 491 272 402 272 333 c 1
 271.79296875 333.537109375 l 1
 271 86 l 2
 271 42 277 38 315 38 c 1
 315 0 l 1
 111 0 l 1
 111 38 l 1
 171 38 174 62 174 86 c 2
 175 670 l 2
 175 704 151 729 109 714 c 1
 87 748 l 1
 133 769 157 780 211 780 c 1
 211 780 273 780 273 710 c 2
 272.196289062 459.373046875 l 1
 318.694335938 520.012695312 379.073242188 545 448 545 c 0
 496 545 590 533 590 359 c 2
 590 86 l 2
 590 42 606 38 644 38 c 1
 644 0 l 1
 443 0 l 1
 443 38 l 1
 489 38 495 62 495 86 c 2
 495 356 l 2
EndSplineSet
EndChar

StartChar: i
Encoding: 105 105 74
Width: 724
Flags: MW
HStem: 0 38<540 570 168 168> 481 43<168 222.5 168 248.5> 525 20G<371 406> 645 132<347.5 384.5>
VStem: 300 132<692.5 729.5> 329 98<416 509>
LayerCount: 2
Fore
SplineSet
425 86 m 2xf4
 425 22 510 38 570 38 c 1
 570 0 l 1
 168 0 l 1
 168 38 l 1
 264 37 327 23 327 86 c 2
 329 416 l 2
 329 481 329 481 168 481 c 1
 168 524 l 1
 277 524 353 545 389 545 c 0
 423 545 427 528 427 490 c 2
 425 86 l 2xf4
300 711 m 0xf8
 300 748 329 777 366 777 c 0
 403 777 432 748 432 711 c 0
 432 674 403 645 366 645 c 0
 329 645 300 674 300 711 c 0xf8
EndSplineSet
EndChar

StartChar: j
Encoding: 106 106 75
Width: 724
Flags: MW
HStem: -196 68<237.5 255> 481 47<168 222.5 168 248.5> 645 132<357.5 394.5>
VStem: 310 133<692.5 729.5> 329 98<86 416 76 490>
LayerCount: 2
Fore
SplineSet
427 86 m 2xe8
 427 490 l 2
 427 528 423 545 389 545 c 0
 353 545 277 528 168 528 c 1
 168 481 l 1
 329 481 329 481 329 416 c 2
 329 76 l 2
 328 -106 308 -128 261 -128 c 0
 214 -128 221 -96 165 -96 c 0
 124 -97 96 -119 96 -148 c 0
 96 -175 135 -196 178 -196 c 0
 332 -196 427 -65 427 86 c 2xe8
310 711 m 0xf0
 310 748 339 777 376 777 c 0
 413 777 443 748 443 711 c 0
 443 674 413 645 376 645 c 0
 339 645 310 674 310 711 c 0xf0
EndSplineSet
EndChar

StartChar: k
Encoding: 107 107 76
Width: 724
Flags: MW
HStem: 0 38<322.5 336.5> 495 37<603.5 620.5>
VStem: 186.5 98<64 237 86 237 325.395 684>
LayerCount: 2
Fore
SplineSet
62.5 740 m 1
 68.5 709 l 1
 68.5 709 186.5 728 186.5 684 c 2
 186.5 86 l 2
 186.5 42 156.5 37 111.5 38 c 1
 111.5 0 l 1
 336.5 0 l 1
 336.5 38 l 1
 308.5 38 284.5 38 284.5 86 c 2
 284.5 237 l 1
 311.693359375 264.193359375 l 1
 486.5 32 l 2
 512.5 3 528.5 -7 556.5 -7 c 0
 615.5 -7 652.5 15 652.5 15 c 1
 646.5 48 l 1
 605.5 40 582.5 39 566.5 56 c 2
 373.817382812 326.317382812 l 1
 509.5 462 l 2
 536.5 491 581.5 495 620.5 495 c 1
 621.5 532 l 1
 585.5 532 578.5 531 538.5 529 c 0
 485.5 526 441.5 481 407.5 446 c 0
 371.038085938 409.104492188 324.967773438 364.295898438 284.5 325.39453125 c 1
 284.5 716 l 2
 284.5 775 272.5 780 248.5 780 c 0
 215.5 780 101.5 742 62.5 740 c 1
EndSplineSet
EndChar

StartChar: l
Encoding: 108 108 77
Width: 724
Flags: MW
HStem: 0 38<508.5 538.5 189.5 189.5> 760 20G<366 394.5>
VStem: 315.5 98<86 684 684 706>
LayerCount: 2
Fore
SplineSet
191.5 740 m 1
 230.5 742 349.5 780 382.5 780 c 0
 406.5 780 413.5 775 413.5 716 c 2
 413.5 86 l 2
 413.5 38 478.5 38 538.5 38 c 1
 538.5 0 l 1
 189.5 0 l 1
 189.5 38 l 1
 276.5 37 315.5 42 315.5 86 c 2
 315.5 684 l 2
 315.5 728 196.5 709 196.5 709 c 1
 191.5 740 l 1
EndSplineSet
EndChar

StartChar: m
Encoding: 109 109 78
Width: 724
Flags: MW
HStem: 0 38<300.999 448.999 300.999 300.999> 489 56
VStem: 96 93<64 435.002> 329 92.05 569 93
LayerCount: 2
Fore
SplineSet
189 86 m 2
 189 42 195 38.001953125 213 38.001953125 c 1
 213 0.001953125 l 1
 35 0.001953125 l 1
 35 38.001953125 l 1
 85 38.001953125 96 62.001953125 96 86.001953125 c 2
 96 435.001953125 l 2
 96 479.001953125 32 491.001953125 32 491.001953125 c 1
 32 518.001953125 l 1
 116 545.001953125 144 545.001953125 144 545.001953125 c 1
 163.903320312 545.001953125 180.002929688 495.73046875 187.090820312 495.73046875 c 1
 213.165039062 523.694335938 246.685546875 545.000976562 303 545.000976562 c 0
 350.814453125 545.000976562 379.385742188 523.641601562 396.396484375 498.227539062 c 1
 436.053710938 526.130859375 470.478515625 545.000976562 519.999023438 545.000976562 c 0
 611.999023438 545.000976562 658.999023438 516.000976562 658.999023438 430.000976562 c 2
 661.999023438 86.0009765625 l 2
 661.999023438 42.0009765625 676.999023438 38.0009765625 694.999023438 38.0009765625 c 1
 694.999023438 0.0009765625 l 1
 537.999023438 0.0009765625 l 1
 537.999023438 38.0009765625 l 1
 568.999023438 38.0009765625 568.999023438 62.0009765625 568.999023438 86.0009765625 c 2
 567.999023438 405.000976562 l 2
 567.999023438 479.000976562 530.999023438 489.000976562 504.999023438 489.000976562 c 0
 445.635742188 489.000976562 422.260742188 465.32421875 421.048828125 400.459960938 c 2
 421.999023438 86 l 2
 421.999023438 42 448.999023438 38 448.999023438 38 c 1
 448.999023438 0 l 1
 300.999023438 0 l 1
 300.999023438 38 l 1
 300.999023438 38 328.999023438 48 328.999023438 86 c 2
 328.999023438 416 l 2
 328.999023438 460 309.999023438 489 269.999023438 489 c 0
 230.3828125 489 208.759765625 464.041992188 190.979492188 428.717773438 c 0
 190.993164062 426.520507812 191 424.28125 191 422 c 2
 189 86 l 2
EndSplineSet
EndChar

StartChar: n
Encoding: 110 110 79
Width: 724
Flags: MW
HStem: 0 38<99 129 295 314 99 129 436 459 631 650> 479 33<73 86> 489 56
VStem: 163 97 499 98<86 393 393 401>
LayerCount: 2
Fore
SplineSet
499 393 m 2xb8
 499 479 442.999023438 489.000976562 404.999023438 489.000976562 c 0xb8
 318.952148438 489.000976562 265.8125 400.333984375 261.310546875 340.982421875 c 1
 260 86 l 2
 260 42 276 38 314 38 c 1
 314 0 l 1
 99 0 l 1
 99 38 l 1
 159 38 162 62 162 86 c 2
 163 435 l 2
 163 479 139 494 86 479 c 1
 73 512 l 1xd8
 119 533 157 545 211 545 c 1
 211 545 262 545 262 475 c 2
 261.916015625 458.650390625 l 1
 311.9375 519.814453125 381.799804688 545 451 545 c 0
 499 545 597 512 597 401 c 2
 597 86 l 2
 597 42 612 38 650 38 c 1
 650 0 l 1
 436 0 l 1
 436 38 l 1
 482 38 499 62 499 86 c 2
 499 393 l 2xb8
EndSplineSet
EndChar

StartChar: o
Encoding: 111 111 80
Width: 724
Flags: MW
HStem: -13 57
VStem: 106 514
LayerCount: 2
Fore
SplineSet
370 544 m 0
 529 541 619.42578125 404.002929688 620 284 c 0
 621 75 488 -13 347 -13 c 0
 231 -13 106 86.099609375 106 252 c 0
 106 408.818359375 214 547 370 544 c 0
358 487 m 0
 266.293945312 493.28125 193.000976562 398 205.000976562 246 c 0
 216.857421875 95.8232421875 275.5234375 43.90234375 377.000976562 44 c 0
 482.96484375 44.1025390625 529.970703125 155.258789062 522 278 c 0
 512 432 431 482 358 487 c 0
EndSplineSet
EndChar

StartChar: p
Encoding: 112 112 81
Width: 724
Flags: MW
HStem: -233 38<333.012 363.012 98.0117 98.0117> 0 46<363.747 439.012 363.747 472.012> 489 56<394.69 446.512>
VStem: 161.012 98
LayerCount: 2
Fore
SplineSet
59.01171875 517 m 1
 98.01171875 519 189.01171875 547 222.01171875 547 c 0
 246.01171875 547 259.01171875 542 259.01171875 483 c 2
 259.01171875 457.459960938 l 1
 318.965820312 525.9921875 359.369140625 545 430.01171875 545 c 0
 608.01171875 545 674.01171875 401 664.01171875 261 c 1
 643.01171875 76 545.01171875 0 399.01171875 0 c 0
 326.9375 0 287.84375 15.0439453125 259.01171875 32.6826171875 c 1
 259.01171875 -147 l 2
 259.01171875 -195 303.01171875 -195 363.01171875 -195 c 1
 363.01171875 -233 l 1
 98.01171875 -233 l 1
 98.01171875 -195 l 1
 153.01171875 -196 161.01171875 -180 161.01171875 -147 c 2
 161.01171875 450 l 2
 161.01171875 494 64.01171875 485 64.01171875 485 c 1
 59.01171875 517 l 1
259.01171875 357.665039062 m 1
 259.01171875 85.8076171875 l 1
 291.096679688 65.1484375 332.482421875 46 395.01171875 46 c 0
 483.01171875 46 555.01171875 119 568.01171875 255 c 1
 575.01171875 433 491.01171875 489 402.01171875 489 c 0
 369.7734375 489 270.106445312 455.735351562 259.01171875 357.665039062 c 1
EndSplineSet
EndChar

StartChar: q
Encoding: 113 113 82
Width: 724
Flags: MW
HStem: -13 61<270.5 328.852> 491 54<273.5 364.5>
VStem: 68 95<206.5 318 206.5 337> 457 98<-148.499 -131.999 -131.999 99.3086 99.3086 99.3086 183.483 384 384 426>
LayerCount: 2
Fore
SplineSet
555 546 m 1
 555 466.000976562 l 1
 555 -131.999023438 l 2
 555 -164.999023438 556 -179.999023438 585 -177.999023438 c 0
 606 -175.999023438 633 -162.999023438 633 -162.999023438 c 1
 645 -193.999023438 l 1
 645 -193.999023438 590 -248.999023438 513 -249.999023438 c 0
 469 -249.999023438 457 -201.999023438 457 -166.999023438 c 2
 457 99.30859375 l 1
 428.368164062 33.8056640625 357.703125 -13 300 -13 c 0
 187 -13 68 87 68 264 c 0
 68 410 166 545 332 545 c 0
 416 545 433 513 458 513 c 0
 488 513 555 546 555 546 c 1
457 183.483398438 m 1
 457 384 l 2
 457 468 389 491 340 491 c 0
 207 491 163 365 163 271 c 0
 163 142 235 48 306 48 c 0
 362.8125 48 430.83203125 102.16796875 457 183.483398438 c 1
EndSplineSet
EndChar

StartChar: r
Encoding: 114 114 83
Width: 724
Flags: MW
HStem: 0 38 479 60
VStem: 251 98<74.001 86.001>
LayerCount: 2
Fore
SplineSet
350.645507812 327.87109375 m 1
 349 86.0009765625 l 2
 349 42.0009765625 386 38.0009765625 456 38.0009765625 c 1
 456 0.0009765625 l 1
 156 0.0009765625 l 1
 156 38.0009765625 l 1
 227 38.0009765625 251 62.0009765625 251 86.0009765625 c 2
 252 435.000976562 l 2
 252 479.000976562 175 494.000976562 122 479.000976562 c 1
 110 506.000976562 l 1
 156 527.000976562 173 539.000976562 227 539.000976562 c 0
 284.177734375 539.000976562 334.875976562 525.086914062 347.142578125 440.873046875 c 1
 405.59765625 519.28515625 459.227539062 545 512 545 c 0
 623 545 625 456 625 456 c 1
 625 427 597 404 564 404 c 0
 503 404 544 479 468 479 c 0
 406 479 351 378 351 326 c 1
 350.645507812 327.87109375 l 1
EndSplineSet
EndChar

StartChar: s
Encoding: 115 115 84
Width: 724
Flags: MW
HStem: -13 46<312.5 420.5 312.5 440> 426 120
VStem: 139 94<352.5 441.5 352.5 462> 499 91<109 215>
LayerCount: 2
Fore
SplineSet
445 546 m 0
 312 562 139 525 139 399 c 0
 139 202 499 288 499 142 c 0
 499 76 476 33 365 33 c 0
 260 33 265 75 223 100 c 0
 189 120 119 103 119 71 c 0
 119 33 166 -13 391 -13 c 0
 489 -13 590 39 590 148 c 0
 590 366 233 285 233 420 c 0
 233 463 264 496 340 496 c 0
 476 496 438 426 510 426 c 0
 545 426 559 452 559 483 c 0
 559 510 515 538 445 546 c 0
EndSplineSet
EndChar

StartChar: t
Encoding: 116 116 85
Width: 724
Flags: MW
HStem: -13 62<367.5 475.5> 485 60<345 558>
VStem: 247 98<125 128 128 485> 279 71<650 693>
LayerCount: 2
Fore
SplineSet
351 545 m 1xd0
 558 545 l 2
 570 545 570 545 570 517 c 0
 570 487 570 486 558 486 c 2
 345 485 l 1
 345 128 l 2
 345 54 399 50 446 49 c 0
 505 49 551 70 591 100 c 1
 607 77 l 1
 575 41 526 -3 435 -13 c 1
 300 -13 247 42 247 125 c 2
 247 485 l 1xe0
 150 485 l 2
 129 485 129 485 129 514 c 0
 129 544 129 544 150 544 c 0
 291 545 279 608 279 692 c 1
 350 693 l 1
 351 545 l 1xd0
EndSplineSet
EndChar

StartChar: u
Encoding: 117 117 86
Width: 724
Flags: MW
HStem: -13 55<297.5 348.248> -1 21G<518.946 529.999> 503 26<417 417> 525 20G<196 207.5 531.999 540.499>
VStem: 129 98<149 192 192 435 435 456.5> 475 98
LayerCount: 2
Fore
SplineSet
417 529 m 1xac
 501 545 531.999023438 545 531.999023438 545 c 2
 548.999023438 545 572.999023438 530 572.999023438 475 c 2
 572.999023438 118 l 2
 572.999023438 85 573.999023438 81 602.999023438 83 c 0
 623.999023438 85 662.999023438 94 662.999023438 94 c 1
 674.999023438 63 l 1
 674.999023438 63 606.999023438 0 529.999023438 -1 c 0x5c
 507.893554688 -1 476.711914062 44.2626953125 475.09765625 78.8564453125 c 1
 442.755859375 33.076171875 391.495117188 -13 305 -13 c 0
 234 -13 129 15 129 149 c 2
 129 435 l 2
 129 478 130 497 104 497 c 0
 87 497 73 498 58 490 c 1
 50 523 l 1
 104 545 196 545 196 545 c 2x9c
 219 545 227 524 227 475 c 2
 227 192 l 2
 227 63 274 42 321 42 c 0
 393.810546875 42 465.75 106.481445312 475 267.166992188 c 1
 475 435 l 2
 475 479 460 509 417 503 c 1
 417 529 l 1xac
EndSplineSet
EndChar

StartChar: v
Encoding: 118 118 87
Width: 724
Flags: MW
HStem: 0 21G<299.5 305 305 387> 498 31<450 463.5 450 654> 502 39<134.5 141.5>
LayerCount: 2
Fore
SplineSet
364 85 m 1xa0
 498 466 l 2
 506 494 477 498 450 498 c 1
 450 529 l 1
 654 529 l 1
 654 498 l 1xc0
 654 498 568 496 554 466 c 2
 411 38 l 2
 396 0 401 0 387 0 c 2
 305 0 l 2
 294 0 294 3 291 14 c 2
 172 437 l 2
 157 492 154 502 129 502 c 0
 103 502 88 492 88 492 c 1
 76 524 l 1
 76 524 107 541 162 541 c 0
 217 541 232 533 245 514 c 1
 364 85 l 1xa0
EndSplineSet
EndChar

StartChar: w
Encoding: 119 119 88
Width: 724
Flags: MW
HStem: 0 21G<206.5 248.5 492.5 526> 499 30<43 55 254 254 509 544 663 684>
LayerCount: 2
Fore
SplineSet
40 529 m 1
 255 529 l 1
 254 499 l 1
 254 499 200 500 207 445 c 2
 257 86 l 1
 369 419 l 1
 399 419 l 1
 513 85 l 1
 571 442 l 2
 578 486 579 499 509 499 c 1
 509 529 l 1
 684 529 l 1
 684 499 l 1
 642 499 628 498 622 441 c 1
 542 4 l 1
 542 4 542 0 510 0 c 0
 475 0 469 4 469 4 c 1
 371 274 l 1
 280 5 l 1
 280 5 274 0 223 0 c 0
 190 0 186 4 186 4 c 1
 115 449 l 2
 106 496 67 499 43 499 c 1
 40 529 l 1
EndSplineSet
EndChar

StartChar: x
Encoding: 120 120 89
Width: 724
Flags: MW
HStem: 0 38<75 113 271 290 75 113> 17 33<643 649> 487 51<136 231> 498 31<414 427.5 414 618>
LayerCount: 2
Fore
SplineSet
649 17 m 1x50
 588 -3 549 -6 521 -6 c 0
 493 -6 471 13 452 42 c 2
 340.10546875 226.41015625 l 1
 323 202 l 1
 242 86 l 2
 209 38 252 38 290 38 c 1
 290 0 l 1
 75 0 l 1
 75 38 l 1
 151 38 150 38 185 86 c 2
 286 229 l 1
 314.1484375 269.188476562 l 1
 219 426 l 2
 189 475 183 487 149 487 c 0
 123 487 98 477 98 477 c 1
 85 516 l 1
 85 516 153 538 208 538 c 0xa0
 254 538 259 521 274.416992188 498.432617188 c 2
 367.840820312 346.532226562 l 1
 452 466 l 2
 470.322265625 492.009765625 441 498 414 498 c 1
 414 529 l 1
 618 529 l 1
 618 498 l 1
 618 498 530.659179688 498.200195312 508 466 c 2
 394 304 l 1
 544.416992188 59.4326171875 l 1
 563.416992188 38.4326171875 579 35 643 50 c 1
 649 17 l 1x50
EndSplineSet
EndChar

StartChar: y
Encoding: 121 121 90
Width: 724
Flags: MW
HStem: 491 46<124.5 142.5> 498 31<445 458.5 445 648>
LayerCount: 2
Fore
SplineSet
264 -148 m 1x80
 570 466 l 2
 584 496 648 498 648 498 c 1
 648 529 l 1
 445 529 l 1
 445 498 l 1x40
 472 498 511 494 503 466 c 1
 366 178 l 1
 256 506 l 1
 243 525 207 537 152 537 c 0
 97 537 76 510 76 510 c 1
 89 482 l 1
 89 482 104 491 130 491 c 0
 155 491 168 492 183 437 c 2
 311 61 l 1
 250 -57 l 2
 211 -125 147 -99 121 -148 c 0
 106 -177 144 -210 177 -210 c 0
 236 -210 264 -148 264 -148 c 1x80
EndSplineSet
EndChar

StartChar: z
Encoding: 122 122 91
Width: 724
Flags: MW
HStem: 0 62<247 456 456 471 247 479> 459 70<223.5 236 236 453>
VStem: 166 38<401 425 401 465> 533 42<98.5 145>
LayerCount: 2
Fore
SplineSet
547 529 m 1
 547 479 l 1
 247 62 l 1
 456 62 l 2
 486 62 533 52 533 145 c 1
 575 145 l 1
 566 44 l 2
 559 0 565 0 479 0 c 2
 149 0 l 1
 149 38 l 1
 453 459 l 1
 236 459 l 2
 211 459 204 449 204 401 c 1
 166 401 l 1
 166 529 166 529 201 529 c 2
 547 529 l 1
EndSplineSet
EndChar

StartChar: braceleft
Encoding: 123 123 92
Width: 724
Flags: MW
HStem: -186 38<408 485> 321 51<211 242> 754 38<378.5 514>
VStem: 283 52<246 249 76 263>
LayerCount: 2
Fore
SplineSet
286 440 m 0
 286 417 282 372 211 372 c 1
 211 321 l 1
 273 321 283 280 283 246 c 0
 290 -84 288 -186 485 -186 c 1
 486 -148 l 1
 330 -148 335 -26 335 178 c 0
 335 320 335 325 258 346 c 1
 334 367 334 371 334 571 c 0
 334 657 335 764 514 754 c 1
 502 792 l 1
 255 792 286 646 286 440 c 0
EndSplineSet
EndChar

StartChar: bar
Encoding: 124 124 93
Width: 724
Flags: W
LayerCount: 2
Fore
SplineSet
336 -186 m 1
 387 -186 l 1
 388 780 l 1
 337 780 l 1
 336 -186 l 1
EndSplineSet
EndChar

StartChar: braceright
Encoding: 125 125 94
Width: 724
Flags: MW
HStem: -186 38<240 317 239 338.5> 321 51<483 514> 754 38<211 345.5>
VStem: 390 52<246 249>
LayerCount: 2
Fore
SplineSet
438 440 m 0
 438 417 443 372 514 372 c 1
 514 321 l 1
 452 321 442 280 442 246 c 0
 435 -84 437 -186 240 -186 c 1
 239 -148 l 1
 395 -148 390 -26 390 178 c 0
 390 320 389 325 466 346 c 1
 390 367 390 371 390 571 c 0
 390 657 390 764 211 754 c 1
 222 792 l 1
 469 792 438 646 438 440 c 0
EndSplineSet
EndChar

StartChar: asciitilde
Encoding: 126 126 95
Width: 724
Flags: MW
HStem: 584 69<432.5 485.5 423 518> 624 70<243 300 232.5 307>
LayerCount: 2
Fore
SplineSet
150 582 m 1x40
 129 624 l 1
 129 624 204 694 261 694 c 0x40
 339 694 383 653 463 653 c 0
 508 653 574 687 574 687 c 1
 596 643 l 1
 596 643 563 584 473 584 c 0x80
 392 584 347 624 267 624 c 0
 219 624 150 582 150 582 c 1x40
EndSplineSet
EndChar

StartChar: oe
Encoding: 339 339 96
Width: 724
Flags: MW
HStem: -14 62 279.933 43.9638 503 41
VStem: 637 75 689 19
LayerCount: 2
Fore
SplineSet
689 155 m 1xe8
 707.999023438 141.999023438 l 1xe8
 687.999023438 77.9990234375 642.999023438 -14.0009765625 528.999023438 -14.0009765625 c 0
 471.719726562 -14.0009765625 405.966796875 21.587890625 367.0390625 104.34765625 c 1
 327.581054688 18.02734375 257.071289062 -13 186.999023438 -13 c 0
 99.9990234375 -13 24.9990234375 98 12.9990234375 252 c 0
 0.9990234375 408 94.9990234375 547 211.999023438 544 c 0
 281.689453125 542.243164062 333.545898438 494.529296875 364.755859375 431.186523438 c 1
 395.875 496.068359375 451.264648438 544 537 544 c 0
 643 544 712 449 712 321 c 0xf0
 711 276 716 279 682 279 c 2
 412.2578125 279.93359375 l 1
 413.642578125 257.240234375 416.815429688 233.201171875 422 208 c 0
 446 120 469 48 560 48 c 0
 625 48 676 128 689 155 c 1xe8
168.999023438 489.999023438 m 0
 118.999023438 469.999023438 60.9990234375 379.999023438 97.9990234375 205.999023438 c 0
 122.999023438 85.9990234375 186.999023438 23.9990234375 255.999023438 51.9990234375 c 0
 315.999023438 76.9990234375 332.999023438 151.999023438 322.999023438 277.999023438 c 0
 305.999023438 484.999023438 229.999023438 513.999023438 168.999023438 489.999023438 c 0
411.822265625 323.896484375 m 1
 636.998046875 322.999023438 l 1xf0
 636.998046875 398.999023438 584.998046875 502.999023438 529.998046875 502.999023438 c 0
 467.000976562 502.240234375 416.677734375 433.502929688 411.822265625 323.896484375 c 1
EndSplineSet
EndChar

StartChar: emdash
Encoding: 8212 8212 97
Width: 724
Flags: W
LayerCount: 2
Fore
SplineSet
644 341 m 1
 644 393 l 1
 81 394 l 1
 81 342 l 1
 644 341 l 1
EndSplineSet
EndChar

StartChar: endash
Encoding: 8211 8211 98
Width: 724
Flags: W
LayerCount: 2
Fore
SplineSet
575 341 m 1
 575 393 l 1
 149 394 l 1
 149 342 l 1
 575 341 l 1
EndSplineSet
EndChar

StartChar: quotedblleft
Encoding: 8220 8220 99
Width: 724
Flags: MW
HStem: 412 178<207 246.5 207 251.5 491 530.5>
VStem: 114 93<590 625.5> 397 94<590 625.5>
LayerCount: 2
Fore
SplineSet
506 412 m 0
 565 412 595 447 600 488 c 0
 607 544 570 590 491 590 c 1
 491 706 611 741 611 741 c 1
 589 785 l 1
 589 785 397 712 397 539 c 0
 397 470 432 412 506 412 c 0
222 412 m 0
 281 412 312 447 317 488 c 0
 324 544 286 590 207 590 c 1
 207 706 327 741 327 741 c 1
 305 785 l 1
 305 785 114 712 114 539 c 0
 114 470 148 412 222 412 c 0
EndSplineSet
EndChar

StartChar: quotedblright
Encoding: 8221 8221 100
Width: 724
Flags: MW
HStem: 607 178<194.5 234 477.5 517>
VStem: 234 93<571.5 607> 517 94<571.5 607>
LayerCount: 2
Fore
SplineSet
219 785 m 0
 160 785 129 750 124 709 c 0
 117 653 155 607 234 607 c 1
 234 491 114 456 114 456 c 1
 136 412 l 1
 136 412 327 485 327 658 c 0
 327 727 293 785 219 785 c 0
502 785 m 0
 443 785 413 750 408 709 c 0
 401 653 438 607 517 607 c 1
 517 491 397 456 397 456 c 1
 419 412 l 1
 419 412 611 485 611 658 c 0
 611 727 576 785 502 785 c 0
EndSplineSet
EndChar

StartChar: Euro
Encoding: 8364 8364 101
Width: 724
Flags: MW
HStem: -14 52 299.643 52.0327 425.637 52.0222 714 49
VStem: 127.851 104.345 603 34
LayerCount: 2
Fore
SplineSet
456 763 m 0
 577 763 636.999023438 720.999023438 636.999023438 720.999023438 c 1
 636.999023438 596.999023438 l 1
 602.999023438 596.999023438 l 1
 602.999023438 671.999023438 567.999023438 713.999023438 449.999023438 713.999023438 c 0
 304.448242188 713.999023438 255.969726562 602.17578125 239.899414062 477.658203125 c 1
 549 476.999023438 l 1
 533 424.999023438 l 1
 234.927734375 425.635742188 l 1
 233.274414062 400.6875 232.540039062 375.778320312 232.224609375 351.674804688 c 1
 549 350.999023438 l 1
 533 298.999023438 l 1
 232.196289062 299.641601562 l 1
 236.361328125 178.08984375 306.795898438 37.9990234375 428.000976562 37.9990234375 c 0
 638.000976562 37.9990234375 614.000976562 185.999023438 614.000976562 185.999023438 c 1
 660.000976562 185.999023438 l 1
 660.000976562 58.9990234375 l 1
 660.000976562 58.9990234375 538.000976562 -14.0009765625 412.000976562 -14.0009765625 c 0
 229.708007812 -14.0009765625 137.51953125 140.3359375 127.8515625 299.864257812 c 1
 65.0009765625 299.999023438 l 1
 80.0009765625 351.999023438 l 1
 127.215820312 351.8984375 l 1
 127.672851562 376.75390625 128.884765625 401.517578125 131.1171875 425.858398438 c 1
 65 426 l 1
 80 478 l 1
 137.663085938 477.876953125 l 1
 163.360351562 635.1875 243.135742188 763 456 763 c 0
EndSplineSet
EndChar

StartChar: bullet
Encoding: 8226 8226 102
Width: 724
Flags: MW
HStem: 113 557
LayerCount: 2
Fore
SplineSet
370 670 m 0
 529 667 619 530 620 410 c 0
 621 184 478 113 337 113 c 0
 221 113 122 224 106 378 c 0
 90 534 214 673 370 670 c 0
EndSplineSet
EndChar

StartChar: OE
Encoding: 338 338 103
Width: 724
Flags: MW
HStem: -14 65<206.999 257.131> 0 38<492.999 501.999 501.999 608.999> 380 50<492.999 493.999 493.999 558.999> 713 61<197.999 272.517 173.5 298.999> 726 37<507.999 577.999 577.999 618.999>
VStem: 31 102 366 109 616 28 667 28
LayerCount: 2
Fore
SplineSet
261 774 m 0x3780
 86 774 30.9990234375 533 30.9990234375 314 c 0
 30.9990234375 88 146.999023438 -14 242.999023438 -14 c 0xb780
 271.262695312 -14 296.375 -9.033203125 318.624023438 0 c 1
 694.999023438 0 l 1
 694.999023438 162 l 1
 666.999023438 162 l 1
 666.999023438 65 658.999023438 38 608.999023438 38 c 2
 501.999023438 38 l 2
 483.999023438 38 474.999023438 48 474.999023438 86 c 2
 474.999023438 357 l 2
 474.999023438 378 483.999023438 380 492.999023438 380 c 2
 560.999023438 380 l 2
 608.999023438 380 615.999023438 360 615.999023438 326 c 1
 643.999023438 326 l 1
 643.999023438 478 l 1
 618.999023438 478 l 1
 618.999023438 455 613.999023438 430 558.999023438 430 c 2
 493.999023438 430 l 2
 476.999023438 430 474.999023438 462 474.999023438 479 c 2
 474.999023438 677 l 2
 474.999023438 716 507.999023438 726 507.999023438 726 c 1
 577.999023438 726 l 2
 659.999023438 726 663.999023438 677 663.999023438 640 c 1
 691.999023438 640 l 1
 690.999023438 763 l 1
 323.999023438 763 l 1x6f80
 323.267578125 761.7109375 l 1
 304.716796875 769.66015625 284.033203125 774 261 774 c 0x3780
247.999023438 713 m 0
 349.999023438 713 365.999023438 624 365.999023438 345 c 0
 365.999023438 139 350.999023438 51 249.999023438 51 c 0
 163.999023438 51 132.999023438 167 132.999023438 318 c 0
 132.999023438 557 147.999023438 713 247.999023438 713 c 0
EndSplineSet
EndChar

StartChar: quoteleft
Encoding: 8216 8216 104
Width: 724
Flags: MW
HStem: 412 178<349.5 389 349.5 393>
VStem: 255.5 94<590 625.5>
LayerCount: 2
Fore
SplineSet
363.5 412 m 0
 289.5 412 255.5 470 255.5 539 c 0
 255.5 712 446.5 785 446.5 785 c 1
 468.5 741 l 1
 468.5 741 349.5 706 349.5 590 c 1
 428.5 590 465.5 544 458.5 488 c 0
 453.5 447 422.5 412 363.5 412 c 0
EndSplineSet
EndChar

StartChar: quoteright
Encoding: 8217 8217 105
Width: 724
Flags: MW
HStem: 607 178<335.5 375>
VStem: 375 94<571.5 607>
LayerCount: 2
Fore
SplineSet
361 785 m 0
 435 785 469 727 469 658 c 0
 469 485 278 412 278 412 c 1
 256 456 l 1
 256 456 375 491 375 607 c 1
 296 607 259 653 266 709 c 0
 271 750 302 785 361 785 c 0
EndSplineSet
EndChar

StartChar: ellipsis
Encoding: 8230 8230 106
Width: 724
Flags: MW
HStem: -13 188<105.5 153 343.5 391 581.5 629>
VStem: 27 194<52 106.5 51.5 114> 265 194<52 106.5 51.5 114> 503 194<52 106.5 51.5 114>
CounterMasks: 1 70
LayerCount: 2
Fore
SplineSet
602 175 m 0
 661 175 697 127 697 86 c 0
 697 17 649 -13 609 -13 c 0
 554 -13 503 18 503 86 c 0
 503 142 547 175 602 175 c 0
364 175 m 0
 423 175 459 127 459 86 c 0
 459 17 411 -13 371 -13 c 0
 316 -13 265 18 265 86 c 0
 265 142 309 175 364 175 c 0
126 175 m 0
 185 175 221 127 221 86 c 0
 221 17 173 -13 133 -13 c 0
 78 -13 27 18 27 86 c 0
 27 142 71 175 126 175 c 0
EndSplineSet
EndChar

StartChar: exclamdown
Encoding: 161 161 107
Width: 724
Flags: MW
HStem: 460 142<345 383 345 388>
VStem: 289 147<518 555 516 555.5> 305 107<-142.5 -97 -143 -96> 332 57<240 363>
LayerCount: 2
Fore
SplineSet
332 363 m 1x90
 332 117 305 -71 305 -121 c 0
 305 -164 325 -186 359 -186 c 0
 391 -186 412 -164 412 -122 c 0xa0
 412 -72 389 116 389 363 c 1
 332 363 l 1x90
361 460 m 0
 303 460 289 503 289 533 c 0
 289 578 324 602 366 602 c 0
 400 602 436 577 436 533 c 0xc0
 436 499 415 460 361 460 c 0
EndSplineSet
EndChar

StartChar: cent
Encoding: 162 162 108
Width: 724
Flags: MW
HStem: -12.6416 75.6416 497 46.2173
VStem: 336 51
LayerCount: 2
Fore
SplineSet
387.151367188 544.588867188 m 1
 482.079101562 541.076171875 581 515.010742188 581 464 c 0
 581 424 547 405 518 405 c 0
 480 405 470 448 434 472 c 0
 414 485 402 497 361 497 c 0
 192 497 178 351 198 251 c 0
 220 130 297 63 425 63 c 0
 495 63 534 85 586 120 c 1
 610 100 l 1
 557.94140625 32.7978515625 474.526367188 -8.423828125 387.73828125 -12.640625 c 1
 386.999023438 -161.999023438 l 1
 335.999023438 -161.999023438 l 1
 336.749023438 -10.4736328125 l 1
 198.180664062 9.16796875 113.999023438 139.811523438 113.999023438 256 c 0
 113.999023438 433.817382812 223.501953125 529.295898438 336.14453125 543.216796875 c 1
 337 716 l 1
 388 716 l 1
 387.151367188 544.588867188 l 1
EndSplineSet
EndChar

StartChar: sterling
Encoding: 163 163 109
Width: 724
Flags: MW
HStem: 0 38<234 400> 465 53<440 538>
VStem: 246 108<528 536 536 538 357 601> 563 45<91.5 145>
LayerCount: 2
Fore
SplineSet
234 38 m 1
 343 158 354 249 354 465 c 1
 538 465 l 1
 538 518 l 1
 342 518 354 518 354 538 c 2
 353 653 l 2
 354 701 372 742 411 737 c 0
 472 729 488 664 550 664 c 0
 586 664 620 688 604 720 c 0
 579 766 532 781 480 785 c 0
 304 800 246 704 246 601 c 2
 246 536 l 2
 246 518 239 518 118 518 c 1
 118 468 l 1
 247 467 l 1
 247 245 245 156 116 38 c 1
 116 0 l 1
 608 0 l 1
 608 145 l 1
 563 145 l 1
 563 38 547 38 400 38 c 2
 234 38 l 1
EndSplineSet
EndChar

StartChar: yen
Encoding: 165 165 110
Width: 724
Flags: MW
HStem: 0 38<229 248.5 454.5 474> 729 34<622.5 667>
VStem: 307 84<64 125.378 86 125.378 86 125.588 176.622 176.622 176.622 251.378 302.622 302.622 302.622 336.583>
LayerCount: 2
Fore
SplineSet
307 86 m 2
 307 42 268 38 229 38 c 1
 229 0 l 1
 474 0 l 1
 474 38 l 1
 435 38 391 38 391 86 c 2
 391 125.377929688 l 1
 568 125 l 1
 584 176 l 1
 391 176.412109375 l 1
 391 251.377929688 l 1
 568 251 l 1
 584 302 l 1
 391 302.412109375 l 1
 391 336.583007812 l 1
 545 652 l 1
 577 699 578 729 667 729 c 1
 667 763 l 1
 442 763 l 1
 442 727 l 1
 534 727 502 689 481 648 c 2
 364.251953125 416.171875 l 1
 190 763 l 1
 58 763 l 1
 58 726 l 1
 98 726 106 716 122 687 c 2
 307 338 l 1
 307 302.622070312 l 1
 130 303 l 1
 114 252 l 1
 307 251.587890625 l 1
 307 176.622070312 l 1
 130 177 l 1
 114 126 l 1
 307 125.587890625 l 1
 307 86 l 2
EndSplineSet
EndChar

StartChar: section
Encoding: 167 167 111
Width: 724
Flags: MW
HStem: -13 120 222 49<329.5 388.5> 657 120
VStem: 138 71<352 414.5 352 423.5> 182 79<606 672.5 587 693> 474 68<91.5 152> 515 71<344 409.5 344 415>
LayerCount: 2
Fore
SplineSet
383 271 m 0xf2
 451 271 515 307 515 373 c 0
 515 457 436 499 342 499 c 0
 233 499 209 437 209 392 c 0
 209 312 276 271 383 271 c 0xf2
138 385 m 0
 138 462 172 510 227 532 c 1
 200 552 182 582 182 630 c 0
 182 756 340 793 473 777 c 0
 543 769 586 741 586 714 c 0
 586 683 573 657 538 657 c 0
 466 657 504 727 368 727 c 0
 292 727 261 694 261 651 c 0
 261 523 370 565 452 537 c 0
 522 513 586 440 586 379 c 0
 586 309 565 270 515 229 c 1xea
 532 210 542 179 542 134 c 0
 542 -2 384 -24 251 -13 c 0
 181 -7 138 23 138 50 c 0
 138 81 151 107 186 107 c 0
 258 107 220 38 356 38 c 0
 432 38 474 70 474 113 c 0xf4
 474 191 418 222 359 222 c 0
 242 222 138 280 138 385 c 0
EndSplineSet
EndChar

StartChar: dieresis
Encoding: 168 168 112
Width: 724
Flags: MW
HStem: 634 132<221.5 253.5 468.5 500.5>
VStem: 174 130<685.5 718 681.5 721> 421 130<685.5 718 681.5 721>
LayerCount: 2
Fore
SplineSet
236 766 m 0
 283 766 304 734 304 702 c 0
 304 661 267 634 240 634 c 0
 203 634 174 667 174 704 c 0
 174 738 202 766 236 766 c 0
482 766 m 0
 529 766 551 734 551 702 c 0
 551 661 514 634 487 634 c 0
 450 634 421 667 421 704 c 0
 421 738 448 766 482 766 c 0
EndSplineSet
EndChar

StartChar: copyright
Encoding: 169 169 113
Width: 724
Flags: MW
HStem: 67 27<278.5 443.5 278.5 453> 197 53<353 393.5> 554 33<313.5 367.5> 691 31<278.5 443.5>
VStem: 29 34<310.5 475.5 310.5 485.5> 659 36<310.5 475.5>
LayerCount: 2
Fore
SplineSet
356 587 m 0
 427 587 507 569 507 531 c 0
 507 503 484 490 463 490 c 0
 436 490 429 519 404 536 c 0
 390 545 382 554 353 554 c 0
 235 554 225 452 239 382 c 0
 254 297 308 250 398 250 c 0
 447 250 473 266 510 290 c 1
 527 276 l 1
 488 226 426 197 361 197 c 0
 249 197 180 297 180 385 c 0
 180 520 271 587 356 587 c 0
63 393 m 0
 63 228 196 94 361 94 c 0
 526 94 659 228 659 393 c 0
 659 558 526 691 361 691 c 0
 196 691 63 558 63 393 c 0
29 395 m 0
 29 576 165 722 357 722 c 0
 549 722 695 576 695 395 c 0
 695 214 549 67 357 67 c 0
 165 67 29 214 29 395 c 0
EndSplineSet
EndChar

StartChar: guillemotleft
Encoding: 171 171 114
Width: 724
Flags: W
LayerCount: 2
Fore
SplineSet
533 112 m 1
 500 188 423 254 317 292 c 1
 317 326 l 1
 394 379 489 426 532 511 c 1
 582 475 l 1
 535 419 474 356 385 313 c 1
 473 287 538 207 586 151 c 1
 533 112 l 1
313 112 m 1
 280 188 203 254 97 292 c 1
 97 326 l 1
 174 379 269 426 312 511 c 1
 361 475 l 1
 314 419 254 356 165 313 c 1
 253 287 317 207 365 151 c 1
 313 112 l 1
EndSplineSet
EndChar

StartChar: uni00AD
Encoding: 173 173 115
Width: 724
Flags: W
LayerCount: 2
Fore
SplineSet
617 341 m 1
 617 393 l 1
 107 394 l 1
 107 342 l 1
 617 341 l 1
EndSplineSet
EndChar

StartChar: registered
Encoding: 174 174 116
Width: 724
Flags: MW
HStem: 67 27<278.5 443.5 278.5 453> 221 19<239.002 248.502 337.502 347.002 239.002 248.502> 229 17<532.001 535.001> 386.054 23.1965 585 17<342.502 378.002 378.002 382.502> 691 31<278.5 443.5>
VStem: 29 34<310.5 475.5 310.5 485.5> 267 49 441 42 659 36<310.5 475.5>
LayerCount: 2
Fore
SplineSet
63 393 m 0x9fc0
 63 228 196 94 361 94 c 0
 526 94 659 228 659 393 c 0
 659 558 526 691 361 691 c 0
 196 691 63 558 63 393 c 0x9fc0
29 395 m 0
 29 576 165 722 357 722 c 0
 549 722 695 576 695 395 c 0
 695 214 549 67 357 67 c 0
 165 67 29 214 29 395 c 0
316 386.053710938 m 1
 316.001953125 264 l 2
 316.001953125 240 328.001953125 240 347.001953125 240 c 1
 347.001953125 221 l 1
 239.001953125 221 l 1
 239.001953125 240 l 1xdfc0
 258.001953125 240 267.001953125 242 267.001953125 264 c 2
 267.001953125 559 l 2
 267.001953125 583 263.001953125 584 238.001953125 584 c 1
 238.001953125 602 l 1
 378.001953125 602 l 2
 466.001953125 602 483.001953125 532 483.001953125 493 c 0
 483.001953125 432.024414062 448.256835938 405.793945312 403.602539062 394.51171875 c 1
 495.000976562 256 l 1
 495.000976562 256 506.000976562 239 532.000976562 246 c 1
 535.000976562 229 l 1xbfc0
 511.000976562 219 510.000976562 218 496.000976562 218 c 0
 482.000976562 218 462.000976562 224 451.000976562 242 c 2
 359.471679688 387.69921875 l 1
 344.94921875 386.541992188 330.235351562 386.171875 316 386.053710938 c 1
316.001953125 409.250976562 m 1
 397.774414062 411.282226562 441.001953125 426.712890625 441.001953125 493 c 0
 441.001953125 531 414.001953125 585 351.001953125 585 c 0
 334.001953125 585 316.001953125 581 316.001953125 559 c 2
 316.001953125 409.250976562 l 1
EndSplineSet
EndChar

StartChar: degree
Encoding: 176 176 117
Width: 724
Flags: MW
HStem: 499 266
VStem: 239 246
LayerCount: 2
Fore
SplineSet
363 765 m 0
 434 764 489 700 485 629 c 0
 481 556 435 499 348 499 c 0
 287 499 235 567 239 634 c 0
 243 704 293 766 363 765 c 0
342 732 m 0
 304 725 272 680 287 613 c 0
 298 561 345 520 392 535 c 0
 440 551 444 609 438 645 c 0
 429 699 398 742 342 732 c 0
EndSplineSet
EndChar

StartChar: plusminus
Encoding: 177 177 118
Width: 648
Flags: W
LayerCount: 2
Fore
SplineSet
529.5 -1 m 1
 529.5 38 l 1
 117.5 39 l 1
 117.5 0 l 1
 529.5 -1 l 1
305.450195312 183.049804688 m 1
 341.150390625 183.049804688 l 1
 341.46484375 349.267578125 l 1
 508.450195312 348.950195312 l 1
 508.450195312 385.349609375 l 1
 341.534179688 385.666015625 l 1
 341.849609375 551.950195312 l 1
 306.150390625 551.950195312 l 1
 305.834960938 385.734375 l 1
 139.549804688 386.049804688 l 1
 139.549804688 349.650390625 l 1
 305.765625 349.334960938 l 1
 305.450195312 183.049804688 l 1
EndSplineSet
EndChar

StartChar: acute
Encoding: 180 180 119
Width: 724
Flags: MW
HStem: 548 21G<-29 -29>
LayerCount: 2
Fore
SplineSet
-29 548 m 1
 -49 584 l 1
 223 738 l 1
 223 738 262 763 291 763 c 0
 317 763 353 755 353 715 c 0
 353 683 320 659 259 639 c 0
 117 593 -29 548 -29 548 c 1
EndSplineSet
EndChar

StartChar: periodcentered
Encoding: 183 183 120
Width: 724
Flags: MW
HStem: 217 188<343.5 391>
VStem: 265 194<282 336.5 281.5 344>
LayerCount: 2
Fore
SplineSet
364 405 m 0
 423 405 459 357 459 316 c 0
 459 247 411 217 371 217 c 0
 316 217 265 248 265 316 c 0
 265 372 309 405 364 405 c 0
EndSplineSet
EndChar

StartChar: cedilla
Encoding: 184 184 121
Width: 724
Flags: MW
HStem: -238 34<330.5 372.5 330.5 408.5> -20 20G<335 379 379 379>
VStem: 446 51<-171 -111>
LayerCount: 2
Fore
SplineSet
335 0 m 1
 379 0 l 1
 368 -60 l 1
 368 -60 497 -45 497 -165 c 0
 497 -207 466 -238 351 -238 c 0
 283 -238 228 -205 228 -205 c 1
 245 -183 l 1
 245 -183 309 -204 352 -204 c 0
 393 -204 446 -194 446 -148 c 0
 446 -74 326 -109 326 -109 c 1
 335 0 l 1
EndSplineSet
EndChar

StartChar: guillemotright
Encoding: 187 187 122
Width: 724
Flags: W
LayerCount: 2
Fore
SplineSet
170 112 m 1
 203 188 280 254 386 292 c 1
 386 326 l 1
 309 379 214 426 171 511 c 1
 122 475 l 1
 169 419 229 356 318 313 c 1
 230 287 166 207 118 151 c 1
 170 112 l 1
391 112 m 1
 424 188 501 254 607 292 c 1
 607 326 l 1
 530 379 435 426 392 511 c 1
 342 475 l 1
 389 419 450 356 539 313 c 1
 451 287 386 207 338 151 c 1
 391 112 l 1
EndSplineSet
EndChar

StartChar: questiondown
Encoding: 191 191 123
Width: 724
Flags: MW
HStem: -186 64<340 394 340 418.5> 460 142<367 405 367 411>
VStem: 143 111<4.29497e+09 4.29497e+09> 311 147<518 555 516 555.5> 355 57<226 245 245 352> 470 112
LayerCount: 2
Fore
SplineSet
582 -30 m 0xec
 582 -122 484 -186 353 -186 c 0
 251 -186 142 -132 143 -30 c 0
 144 145 355 126 355 226 c 2
 355 352 l 1
 412 352 l 1
 412 245 l 2
 412 70 254 162 254 -30 c 0
 254 -84 312 -122 368 -122 c 0
 420 -122 492 -119 470 -45 c 0
 448 29 502 49 525 49 c 0
 555 49 582 9 582 -30 c 0xec
384 460 m 0
 326 460 311 503 311 533 c 0
 311 578 346 602 388 602 c 0
 422 602 458 577 458 533 c 0xf4
 458 499 438 460 384 460 c 0
EndSplineSet
EndChar

StartChar: Agrave
Encoding: 192 192 124
Width: 724
Flags: MW
HStem: 0 38<50 69.5 197.5 217 50 69.5> 17 33<667 674> 229 40<218.539 445.747 218.539 458.126 206.617 445.747> 743 20G<310 379 379 379> 922 81
LayerCount: 2
Fore
SplineSet
524 824 m 1x08
 505 794 l 1
 505 794 274 884 174 922 c 0
 153 930 147 949 148 962 c 0
 151 993 169 1003 202 1003 c 0
 258 1003 524 824 524 824 c 1x08
164 86 m 2x70
 149 38 178 38 217 38 c 1
 217 0 l 1
 50 0 l 1
 50 38 l 1xb0
 89 38 93 42 110 86 c 2
 310 763 l 1
 379 763 l 1
 599 71 l 2
 607 50 611 35 667 50 c 1
 674 17 l 1
 613 -3 593 -6 565 -6 c 0
 537 -6 527 13 516 42 c 2
 458.125976562 229 l 1
 206.6171875 229 l 1
 164 86 l 2x70
218.5390625 269 m 1
 445.747070312 269 l 1
 330 643 l 1
 218.5390625 269 l 1
EndSplineSet
EndChar

StartChar: Aacute
Encoding: 193 193 125
Width: 724
Flags: MW
HStem: 0 38<15 34.5 162.5 182 15 34.5> 17 33<632 639> 229 40<183.539 410.747 183.539 423.126 171.617 410.747> 743 20G<275 344 344 344> 795 21G<117 117>
LayerCount: 2
Fore
SplineSet
117 795 m 1x08
 97 831 l 1
 369 985 l 1
 369 985 408 1010 437 1010 c 0
 463 1010 499 1002 499 962 c 0
 499 930 466 906 405 886 c 0
 263 840 117 795 117 795 c 1x08
129 86 m 2x70
 114 38 143 38 182 38 c 1
 182 0 l 1
 15 0 l 1
 15 38 l 1xb0
 54 38 58 42 75 86 c 2
 275 763 l 1
 344 763 l 1
 564 71 l 2
 572 50 576 35 632 50 c 1
 639 17 l 1
 578 -3 558 -6 530 -6 c 0
 502 -6 492 13 481 42 c 2
 423.125976562 229 l 1
 171.6171875 229 l 1
 129 86 l 2x70
183.5390625 269 m 1
 410.747070312 269 l 1
 295 643 l 1
 183.5390625 269 l 1
EndSplineSet
EndChar

StartChar: Acircumflex
Encoding: 194 194 126
Width: 724
Flags: MW
HStem: 0 38<41 60.5 188.5 208 41 60.5> 17 33<658 665> 229 40<209.539 436.747 209.539 449.126 197.617 436.747> 743 20G<301 370 370 370> 936 107<340 352 352 363>
LayerCount: 2
Fore
SplineSet
136 869 m 1x08
 324 1064 315 1043 336 1043 c 2
 370 1043 l 2
 387 1043 377 1054 577 870 c 1
 519 835 l 1
 380 925 381 936 363 936 c 2
 352 936 l 2
 328 936 317 926 185 827 c 1
 136 869 l 1x08
155 86 m 2x70
 140 38 169 38 208 38 c 1
 208 0 l 1
 41 0 l 1
 41 38 l 1xb0
 80 38 84 42 101 86 c 2
 301 763 l 1
 370 763 l 1
 590 71 l 2
 598 50 602 35 658 50 c 1
 665 17 l 1
 604 -3 584 -6 556 -6 c 0
 528 -6 518 13 507 42 c 2
 449.125976562 229 l 1
 197.6171875 229 l 1
 155 86 l 2x70
209.5390625 269 m 1
 436.747070312 269 l 1
 321 643 l 1
 209.5390625 269 l 1
EndSplineSet
EndChar

StartChar: Atilde
Encoding: 195 195 127
Width: 724
Flags: MW
HStem: 0 38<41 60.5 188.5 208 41 60.5> 17 33<658 665> 229 40<209.539 436.747 209.539 449.126 197.617 436.747> 743 20G<301 370 370 370> 829 69<388.5 441.5 379 474> 869 70<199 256 188.5 263>
LayerCount: 2
Fore
SplineSet
106 827 m 1x04
 85 869 l 1
 85 869 160 939 217 939 c 0x04
 295 939 339 898 419 898 c 0
 464 898 530 932 530 932 c 1
 552 888 l 1
 552 888 519 829 429 829 c 0x08
 348 829 303 869 223 869 c 0
 175 869 106 827 106 827 c 1x04
155 86 m 2x70
 140 38 169 38 208 38 c 1
 208 0 l 1
 41 0 l 1
 41 38 l 1xb0
 80 38 84 42 101 86 c 2
 301 763 l 1
 370 763 l 1
 590 71 l 2
 598 50 602 35 658 50 c 1
 665 17 l 1
 604 -3 584 -6 556 -6 c 0
 528 -6 518 13 507 42 c 2
 449.125976562 229 l 1
 197.6171875 229 l 1
 155 86 l 2x70
209.5390625 269 m 1
 436.747070312 269 l 1
 321 643 l 1
 209.5390625 269 l 1
EndSplineSet
EndChar

StartChar: Adieresis
Encoding: 196 196 128
Width: 724
Flags: MW
HStem: 0 38<82 101.5 229.5 249 82 101.5> 17 33<699 706> 229 40<250.539 477.747 250.539 490.126 238.617 477.747> 743 20G<342 411 411 411> 826 132<244.5 276.5 491.5 523.5>
VStem: 197 130<877.5 910 873.5 913> 444 130<877.5 910 873.5 913>
LayerCount: 2
Fore
SplineSet
259 958 m 0x0e
 306 958 327 926 327 894 c 0
 327 853 290 826 263 826 c 0
 226 826 197 859 197 896 c 0
 197 930 225 958 259 958 c 0x0e
505 958 m 0
 552 958 574 926 574 894 c 0
 574 853 537 826 510 826 c 0
 473 826 444 859 444 896 c 0
 444 930 471 958 505 958 c 0
196 86 m 2x70
 181 38 210 38 249 38 c 1
 249 0 l 1
 82 0 l 1
 82 38 l 1xb0
 121 38 125 42 142 86 c 2
 342 763 l 1
 411 763 l 1
 631 71 l 2
 639 50 643 35 699 50 c 1
 706 17 l 1
 645 -3 625 -6 597 -6 c 0
 569 -6 559 13 548 42 c 2
 490.125976562 229 l 1
 238.6171875 229 l 1
 196 86 l 2x70
250.5390625 269 m 1
 477.747070312 269 l 1
 362 643 l 1
 250.5390625 269 l 1
EndSplineSet
EndChar

StartChar: Aring
Encoding: 197 197 129
Width: 724
Flags: MW
HStem: 0 38<41 60.5 188.5 208 41 60.5> 17 33<658 665> 229 40<209.539 436.747 209.539 449.126 197.617 436.747> 743 20G<301 370 370 370> 763.133 266
VStem: 222.006 246
LayerCount: 2
Fore
SplineSet
346.005859375 1029.1328125 m 0x08
 417.005859375 1028.1328125 472.005859375 964.1328125 468.005859375 893.1328125 c 0
 464.005859375 820.1328125 418.005859375 763.1328125 331.005859375 763.1328125 c 0
 270.005859375 763.1328125 218.005859375 831.1328125 222.005859375 898.1328125 c 0
 226.005859375 968.1328125 276.005859375 1030.1328125 346.005859375 1029.1328125 c 0x08
325.005859375 996.1328125 m 0
 287.005859375 989.1328125 255.005859375 944.1328125 270.005859375 877.1328125 c 0
 281.005859375 825.1328125 328.005859375 784.1328125 375.005859375 799.1328125 c 0
 423.005859375 815.1328125 427.005859375 873.1328125 421.005859375 909.1328125 c 0
 412.005859375 963.1328125 381.005859375 1006.1328125 325.005859375 996.1328125 c 0
155 86 m 2x70
 140 38 169 38 208 38 c 1
 208 0 l 1
 41 0 l 1
 41 38 l 1xb0
 80 38 84 42 101 86 c 2
 301 763 l 1
 370 763 l 1
 590 71 l 2
 598 50 602 35 658 50 c 1
 665 17 l 1
 604 -3 584 -6 556 -6 c 0
 528 -6 518 13 507 42 c 2
 449.125976562 229 l 1
 197.6171875 229 l 1
 155 86 l 2x70
209.5390625 269 m 1
 436.747070312 269 l 1
 321 643 l 1
 209.5390625 269 l 1
EndSplineSet
EndChar

StartChar: AE
Encoding: 198 198 130
Width: 724
Flags: MW
HStem: 0 38<29 48.5 166.5 186 29 48.5 286 300 448 584 584 616.5> 229 40<196.98 325 196.98 325 185.4 325> 380 50<429 519 437 519 519 521> 726 37<455 544 455 455>
VStem: 325 87<86 229 229 229 269 357 470.5 479 479 677> 594 35<304 321> 660 36<134.5 183>
LayerCount: 2
Fore
SplineSet
412 86 m 2
 412 48 425 38 448 38 c 2
 584 38 l 2
 649 38 660 86 660 183 c 1
 696 183 l 1
 696 0 l 1
 286 0 l 1
 286 38 l 1
 314 38 325 38 325 86 c 2
 325 229 l 1
 185.400390625 229 l 1
 144 86 l 2
 129 38 147 38 186 38 c 1
 186 0 l 1
 29 0 l 1
 29 38 l 1
 68 38 72 42 89 86 c 2
 292 763 l 1
 325 763 l 1
 330 763 l 1
 340 763 l 1
 690 763 l 1
 691 620 l 1
 656 620 l 1
 656 657 651 726 544 726 c 2
 455 726 l 1
 455 726 412 716 412 677 c 2
 412 479 l 2
 412 462 415 430 437 430 c 2
 519 430 l 2
 590 430 597 476 597 499 c 1
 629 499 l 1
 629 304 l 1
 594 304 l 1
 594 338 583 380 521 380 c 2
 435 380 l 2
 423 380 412 378 412 357 c 2
 412 86 l 2
196.98046875 269 m 1
 325 269 l 1
 325 677 l 2
 325 693.866210938 325.146484375 705.001953125 325.328125 712.322265625 c 2
 196.98046875 269 l 1
EndSplineSet
EndChar

StartChar: Ccedilla
Encoding: 199 199 131
Width: 724
Flags: MW
HStem: -244 34<360.5 402.5 360.5 438.5> -26 20G<365 409 409 409> -14 52<334.5 465> 714 49<313.5 478>
VStem: 96 105<249 395 249 436.5> 476 51<-177 -117> 572 34<597 634.5>
LayerCount: 2
Fore
SplineSet
365 -6 m 1xc4
 409 -6 l 1
 398 -66 l 1
 398 -66 527 -51 527 -171 c 0
 527 -213 496 -244 381 -244 c 0
 313 -244 258 -211 258 -211 c 1
 275 -189 l 1
 275 -189 339 -210 382 -210 c 0
 423 -210 476 -200 476 -154 c 0
 476 -80 356 -115 356 -115 c 1
 365 -6 l 1xc4
425 763 m 0x3a
 546 763 606 721 606 721 c 1
 606 597 l 1
 572 597 l 1
 572 672 537 714 419 714 c 0
 208 714 201 479 201 311 c 0
 201 187 272 38 397 38 c 0
 607 38 583 186 583 186 c 1
 629 186 l 1
 629 59 l 1
 629 59 549 -14 381 -14 c 0
 188 -14 96 159 96 328 c 0
 96 545 147 763 425 763 c 0x3a
EndSplineSet
EndChar

StartChar: Egrave
Encoding: 200 200 132
Width: 724
Flags: MW
HStem: 0 38<134 158.5 311.5 323 323 544> 380 50<311 313 313 479> 726 37<135 154.5 331 504 504 557.5> 922 81
VStem: 204 84<62 357 86 357 357 367.5 479 677> 553 36<304 321> 620 35<134.5 183>
LayerCount: 2
Fore
SplineSet
561 824 m 1
 542 794 l 1
 542 794 311 884 211 922 c 0
 190 930 184 949 185 962 c 0
 188 993 206 1003 239 1003 c 0
 295 1003 561 824 561 824 c 1
553 304 m 1
 589 304 l 1
 589 499 l 1
 557 499 l 1
 557 476 550 430 479 430 c 2
 313 430 l 2
 291 430 288 462 288 479 c 2
 288 677 l 2
 288 716 331 726 331 726 c 1
 504 726 l 2
 611 726 615 657 615 620 c 1
 651 620 l 1
 650 763 l 1
 135 763 l 1
 135 726 l 1
 174 726 204 721 204 677 c 2
 204 86 l 2
 204 38 183 38 134 38 c 1
 134 0 l 1
 655 0 l 1
 655 183 l 1
 620 183 l 1
 620 86 609 38 544 38 c 2
 323 38 l 2
 300 38 288 48 288 86 c 2
 288 357 l 2
 288 378 299 380 311 380 c 2
 481 380 l 2
 543 380 553 338 553 304 c 1
EndSplineSet
EndChar

StartChar: Eacute
Encoding: 201 201 133
Width: 724
Flags: MW
HStem: 0 38<40 64.5 217.5 229 229 450> 380 50<217 219 219 385> 726 37<41 60.5 237 410 410 463.5> 795 21G<95 95>
VStem: 110 84<62 357 86 357 357 367.5 479 677> 459 36<304 321> 526 35<134.5 183>
LayerCount: 2
Fore
SplineSet
95 795 m 1
 75 831 l 1
 347 985 l 1
 347 985 386 1010 415 1010 c 0
 441 1010 477 1002 477 962 c 0
 477 930 444 906 383 886 c 0
 241 840 95 795 95 795 c 1
459 304 m 1
 495 304 l 1
 495 499 l 1
 463 499 l 1
 463 476 456 430 385 430 c 2
 219 430 l 2
 197 430 194 462 194 479 c 2
 194 677 l 2
 194 716 237 726 237 726 c 1
 410 726 l 2
 517 726 521 657 521 620 c 1
 557 620 l 1
 556 763 l 1
 41 763 l 1
 41 726 l 1
 80 726 110 721 110 677 c 2
 110 86 l 2
 110 38 89 38 40 38 c 1
 40 0 l 1
 561 0 l 1
 561 183 l 1
 526 183 l 1
 526 86 515 38 450 38 c 2
 229 38 l 2
 206 38 194 48 194 86 c 2
 194 357 l 2
 194 378 205 380 217 380 c 2
 387 380 l 2
 449 380 459 338 459 304 c 1
EndSplineSet
EndChar

StartChar: Ecircumflex
Encoding: 202 202 134
Width: 724
Flags: MW
HStem: 0 38<103 127.5 280.5 292 292 513> 380 50<280 282 282 448> 726 37<104 123.5 300 473 473 526.5> 936 107<354 366 366 377>
VStem: 173 84<62 357 86 357 357 367.5 479 677> 522 36<304 321> 589 35<134.5 183>
LayerCount: 2
Fore
SplineSet
150 869 m 1
 338 1064 329 1043 350 1043 c 2
 384 1043 l 2
 401 1043 391 1054 591 870 c 1
 533 835 l 1
 394 925 395 936 377 936 c 2
 366 936 l 2
 342 936 331 926 199 827 c 1
 150 869 l 1
522 304 m 1
 558 304 l 1
 558 499 l 1
 526 499 l 1
 526 476 519 430 448 430 c 2
 282 430 l 2
 260 430 257 462 257 479 c 2
 257 677 l 2
 257 716 300 726 300 726 c 1
 473 726 l 2
 580 726 584 657 584 620 c 1
 620 620 l 1
 619 763 l 1
 104 763 l 1
 104 726 l 1
 143 726 173 721 173 677 c 2
 173 86 l 2
 173 38 152 38 103 38 c 1
 103 0 l 1
 624 0 l 1
 624 183 l 1
 589 183 l 1
 589 86 578 38 513 38 c 2
 292 38 l 2
 269 38 257 48 257 86 c 2
 257 357 l 2
 257 378 268 380 280 380 c 2
 450 380 l 2
 512 380 522 338 522 304 c 1
EndSplineSet
EndChar

StartChar: Edieresis
Encoding: 203 203 135
Width: 724
Flags: MW
HStem: 0 38<167 191.5 344.5 356 356 577> 380 50<344 346 346 512> 726 37<168 187.5 364 537 537 590.5> 826 132<283.5 315.5 530.5 562.5>
VStem: 236 130<877.5 910 873.5 913> 237 84<62 357 86 357 357 367.5 479 677> 483 130<877.5 910 873.5 913> 586 36<304 321> 653 35<134.5 183>
LayerCount: 2
Fore
SplineSet
298 958 m 0x1a
 345 958 366 926 366 894 c 0
 366 853 329 826 302 826 c 0
 265 826 236 859 236 896 c 0
 236 930 264 958 298 958 c 0x1a
544 958 m 0
 591 958 613 926 613 894 c 0
 613 853 576 826 549 826 c 0
 512 826 483 859 483 896 c 0
 483 930 510 958 544 958 c 0
586 304 m 1xe580
 622 304 l 1
 622 499 l 1
 590 499 l 1
 590 476 583 430 512 430 c 2
 346 430 l 2
 324 430 321 462 321 479 c 2
 321 677 l 2
 321 716 364 726 364 726 c 1
 537 726 l 2
 644 726 648 657 648 620 c 1
 684 620 l 1
 683 763 l 1
 168 763 l 1
 168 726 l 1
 207 726 237 721 237 677 c 2
 237 86 l 2
 237 38 216 38 167 38 c 1
 167 0 l 1
 688 0 l 1
 688 183 l 1
 653 183 l 1
 653 86 642 38 577 38 c 2
 356 38 l 2
 333 38 321 48 321 86 c 2
 321 357 l 2
 321 378 332 380 344 380 c 2
 514 380 l 2
 576 380 586 338 586 304 c 1xe580
EndSplineSet
EndChar

StartChar: Igrave
Encoding: 204 204 136
Width: 724
Flags: MW
HStem: 0 38<583 613 278 278> 726 37<282 312 282 611> 922 81
VStem: 404 84<86 677>
LayerCount: 2
Fore
SplineSet
604 824 m 1
 585 794 l 1
 585 794 354 884 254 922 c 0
 233 930 227 949 228 962 c 0
 231 993 249 1003 282 1003 c 0
 338 1003 604 824 604 824 c 1
404 677 m 2
 404 725 342 726 282 726 c 1
 282 763 l 1
 611 763 l 1
 611 726 l 1
 524 727 488 721 488 677 c 2
 488 86 l 2
 488 38 553 38 613 38 c 1
 613 0 l 1
 278 0 l 1
 278 38 l 1
 365 37 404 42 404 86 c 2
 404 677 l 2
EndSplineSet
EndChar

StartChar: Iacute
Encoding: 205 205 137
Width: 724
Flags: MW
HStem: 0 38<406 436 101 101> 726 37<105 135 105 434> 795 21G<55 55>
VStem: 227 84<86 677>
LayerCount: 2
Fore
SplineSet
55 795 m 1
 35 831 l 1
 307 985 l 1
 307 985 346 1010 375 1010 c 0
 401 1010 437 1002 437 962 c 0
 437 930 404 906 343 886 c 0
 201 840 55 795 55 795 c 1
227 677 m 2
 227 725 165 726 105 726 c 1
 105 763 l 1
 434 763 l 1
 434 726 l 1
 347 727 311 721 311 677 c 2
 311 86 l 2
 311 38 376 38 436 38 c 1
 436 0 l 1
 101 0 l 1
 101 38 l 1
 188 37 227 42 227 86 c 2
 227 677 l 2
EndSplineSet
EndChar

StartChar: Icircumflex
Encoding: 206 206 138
Width: 724
Flags: MW
HStem: 0 38<500 530 195 195> 726 37<199 229 199 528> 936 107<346 358 358 369>
VStem: 321 84<86 677>
LayerCount: 2
Fore
SplineSet
142 869 m 1
 330 1064 321 1043 342 1043 c 2
 376 1043 l 2
 393 1043 383 1054 583 870 c 1
 525 835 l 1
 386 925 387 936 369 936 c 2
 358 936 l 2
 334 936 323 926 191 827 c 1
 142 869 l 1
321 677 m 2
 321 725 259 726 199 726 c 1
 199 763 l 1
 528 763 l 1
 528 726 l 1
 441 727 405 721 405 677 c 2
 405 86 l 2
 405 38 470 38 530 38 c 1
 530 0 l 1
 195 0 l 1
 195 38 l 1
 282 37 321 42 321 86 c 2
 321 677 l 2
EndSplineSet
EndChar

StartChar: Idieresis
Encoding: 207 207 139
Width: 724
Flags: MW
HStem: 0 38<615 645 310 310> 726 37<314 344 314 643> 826 132<326.5 358.5 573.5 605.5>
VStem: 279 130<877.5 910 873.5 913> 436 84<86 677> 526 130<877.5 910 873.5 913>
LayerCount: 2
Fore
SplineSet
341 958 m 0
 388 958 409 926 409 894 c 0
 409 853 372 826 345 826 c 0
 308 826 279 859 279 896 c 0
 279 930 307 958 341 958 c 0
587 958 m 0
 634 958 656 926 656 894 c 0
 656 853 619 826 592 826 c 0
 555 826 526 859 526 896 c 0
 526 930 553 958 587 958 c 0
436 677 m 2
 436 725 374 726 314 726 c 1
 314 763 l 1
 643 763 l 1
 643 726 l 1
 556 727 520 721 520 677 c 2
 520 86 l 2
 520 38 585 38 645 38 c 1
 645 0 l 1
 310 0 l 1
 310 38 l 1
 397 37 436 42 436 86 c 2
 436 677 l 2
EndSplineSet
EndChar

StartChar: Eth
Encoding: 208 208 140
Width: 724
Flags: MW
HStem: 0 35<316 327 316 393> 341.523 52 716 47<289 307 307 371> 726 37<94 118.5>
VStem: 153 84<86 341.522 393.822 677> 549 95<309 481.5 241.5 518>
LayerCount: 2
Fore
SplineSet
393 0 m 2xec
 95 0 l 1
 95 38 l 1
 134 38 153 42 153 86 c 2
 153 341.822265625 l 1
 95 342 l 1
 95 394 l 1
 153 393.822265625 l 1
 153 677 l 2
 153 725 143 726 94 726 c 1
 94 763 l 1xdc
 307 763 l 2
 563 763 644 618 644 345 c 0
 644 138 572 0 393 0 c 2xec
237 393.522460938 m 1
 408 393 l 1
 408 341 l 1
 237 341.522460938 l 1
 237 86 l 2
 237 38 305 35 327 35 c 0
 546 38 549 208 549 410 c 0
 549 626 437 716 305 716 c 0xec
 273 716 237 721 237 677 c 2
 237 393.522460938 l 1
EndSplineSet
EndChar

StartChar: Ntilde
Encoding: 209 209 141
Width: 724
Flags: MW
HStem: 0 38<116 135.5 261.5 281> 726 37<101 120.5 503 527.5> 829 69<460.5 513.5 451 546> 869 70<271 328 260.5 335>
VStem: 174 45<64 628 86 628 86 677> 562 45<158.44 677 158.44 158.44>
LayerCount: 2
Fore
SplineSet
178 827 m 1x10
 157 869 l 1
 157 869 232 939 289 939 c 0x10
 367 939 411 898 491 898 c 0
 536 898 602 932 602 932 c 1
 624 888 l 1
 624 888 591 829 501 829 c 0x20
 420 829 375 869 295 869 c 0
 247 869 178 827 178 827 c 1x10
607 86 m 2xcc
 607 677 l 2
 607 721 623 727 678 726 c 1
 678 763 l 1
 503 763 l 1
 503 726 l 1
 552 726 562 725 562 677 c 2
 562 158.440429688 l 1
 232 763 l 1
 101 763 l 1
 101 726 l 1
 140 726 174 725 174 677 c 2
 174 86 l 2
 174 42 155 38 116 38 c 1
 116 0 l 1
 281 0 l 1
 281 38 l 1
 242 38 219 38 219 86 c 2
 219 628 l 1
 563 0 l 1
 606 0 l 1
 607 76 l 1
 606.421875 77.05859375 l 2
 606.798828125 79.80859375 607 82.7880859375 607 86 c 2xcc
EndSplineSet
EndChar

StartChar: Ograve
Encoding: 210 210 142
Width: 702
Flags: MW
HStem: -14 53<332.5 451.5 332.5 453.5> 724 48<269 402> 909 81
VStem: 568 90<252.5 442 252.5 443>
LayerCount: 2
Fore
SplineSet
554 811 m 1
 535 781 l 1
 535 781 304 871 204 909 c 0
 183 917 177 936 178 949 c 0
 181 980 199 990 232 990 c 0
 288 990 554 811 554 811 c 1
381 772 m 0
 102 772 29.9892578125 542.735351562 61 314 c 0
 83.3525390625 149.123046875 195 -14 358 -14 c 0
 549 -14 658 153 658 352 c 0
 658 532 600 772 381 772 c 0
324 724 m 0
 480 724 568 541 568 345 c 0
 568 160 504 39 399 39 c 0
 266 39 176.3359375 203.009765625 159 318 c 0
 115.998046875 603.236328125 214 724 324 724 c 0
EndSplineSet
EndChar

StartChar: Oacute
Encoding: 211 211 143
Width: 702
Flags: MW
HStem: -14 53<271.5 390.5 271.5 392.5> 724 48<208 341> 781 21G<121 121>
VStem: 507 90<252.5 442 252.5 443>
LayerCount: 2
Fore
SplineSet
121 781 m 1
 101 817 l 1
 373 971 l 1
 373 971 412 996 441 996 c 0
 467 996 503 988 503 948 c 0
 503 916 470 892 409 872 c 0
 267 826 121 781 121 781 c 1
320 772 m 0
 41 772 -31.0107421875 542.735351562 0 314 c 0
 22.3525390625 149.123046875 134 -14 297 -14 c 0
 488 -14 597 153 597 352 c 0
 597 532 539 772 320 772 c 0
263 724 m 0
 419 724 507 541 507 345 c 0
 507 160 443 39 338 39 c 0
 205 39 115.3359375 203.009765625 98 318 c 0
 54.998046875 603.236328125 153 724 263 724 c 0
EndSplineSet
EndChar

StartChar: Ocircumflex
Encoding: 212 212 144
Width: 702
Flags: MW
HStem: -14 53<327.5 446.5 327.5 448.5> 724 48<264 397> 922 107<374 386 386 397>
VStem: 563 90<252.5 442 252.5 443>
LayerCount: 2
Fore
SplineSet
170 855 m 1
 358 1050 349 1029 370 1029 c 2
 404 1029 l 2
 421 1029 411 1040 611 856 c 1
 553 821 l 1
 414 911 415 922 397 922 c 2
 386 922 l 2
 362 922 351 912 219 813 c 1
 170 855 l 1
376 772 m 0
 97 772 24.9892578125 542.735351562 56 314 c 0
 78.3525390625 149.123046875 190 -14 353 -14 c 0
 544 -14 653 153 653 352 c 0
 653 532 595 772 376 772 c 0
319 724 m 0
 475 724 563 541 563 345 c 0
 563 160 499 39 394 39 c 0
 261 39 171.3359375 203.009765625 154 318 c 0
 110.998046875 603.236328125 209 724 319 724 c 0
EndSplineSet
EndChar

StartChar: Otilde
Encoding: 213 213 145
Width: 702
Flags: MW
HStem: -14 53<327.5 446.5 327.5 448.5> 724 48<264 397> 815 69<423.5 476.5 414 509> 855 70<234 291 223.5 298>
VStem: 563 90<252.5 442 252.5 443>
LayerCount: 2
Fore
SplineSet
141 813 m 1x10
 120 855 l 1
 120 855 195 925 252 925 c 0x10
 330 925 374 884 454 884 c 0
 499 884 565 918 565 918 c 1
 587 874 l 1
 587 874 554 815 464 815 c 0x20
 383 815 338 855 258 855 c 0
 210 855 141 813 141 813 c 1x10
376 772 m 0xc8
 97 772 24.9892578125 542.735351562 56 314 c 0
 78.3525390625 149.123046875 190 -14 353 -14 c 0
 544 -14 653 153 653 352 c 0
 653 532 595 772 376 772 c 0xc8
319 724 m 0
 475 724 563 541 563 345 c 0
 563 160 499 39 394 39 c 0
 261 39 171.3359375 203.009765625 154 318 c 0
 110.998046875 603.236328125 209 724 319 724 c 0
EndSplineSet
EndChar

StartChar: Odieresis
Encoding: 214 214 146
Width: 702
Flags: MW
HStem: -14 53<364.5 483.5 364.5 485.5> 724 48<301 434> 812 132<269.5 301.5 516.5 548.5>
VStem: 222 130<863.5 896 859.5 899> 469 130<863.5 896 859.5 899> 600 90<252.5 442 252.5 443>
LayerCount: 2
Fore
SplineSet
284 944 m 0
 331 944 352 912 352 880 c 0
 352 839 315 812 288 812 c 0
 251 812 222 845 222 882 c 0
 222 916 250 944 284 944 c 0
530 944 m 0
 577 944 599 912 599 880 c 0
 599 839 562 812 535 812 c 0
 498 812 469 845 469 882 c 0
 469 916 496 944 530 944 c 0
413 772 m 0
 134 772 61.9892578125 542.735351562 93 314 c 0
 115.352539062 149.123046875 227 -14 390 -14 c 0
 581 -14 690 153 690 352 c 0
 690 532 632 772 413 772 c 0
356 724 m 0
 512 724 600 541 600 345 c 0
 600 160 536 39 431 39 c 0
 298 39 208.3359375 203.009765625 191 318 c 0
 147.998046875 603.236328125 246 724 356 724 c 0
EndSplineSet
EndChar

StartChar: multiply
Encoding: 215 215 147
Width: 724
Flags: W
LayerCount: 2
Fore
SplineSet
157 200 m 1
 194 163 l 1
 362.451171875 330.999023438 l 1
 530 163 l 1
 566 199 l 1
 398.499023438 366.951171875 l 1
 567 535 l 1
 531 572 l 1
 361.822265625 403.7265625 l 1
 194 572 l 1
 158 536 l 1
 325.725585938 367.823242188 l 1
 157 200 l 1
EndSplineSet
EndChar

StartChar: Oslash
Encoding: 216 216 148
Width: 724
Flags: MW
HStem: -14 49 691 59
VStem: 68 92 571 86
LayerCount: 2
Fore
SplineSet
380 750 m 0
 111 750 58.001953125 533 68.001953125 314 c 0
 73.318359375 203.678710938 118.385742188 95.1240234375 201.736328125 34.7138671875 c 1
 151.000976562 -99 l 1
 203.000976562 -111 l 1
 248.2109375 8.017578125 l 1
 280.2890625 -6.0927734375 316.5703125 -14 357 -14 c 0
 588 -14 657 183 657 352 c 0
 657 485.591796875 620.094726562 640.115234375 515.21484375 710.9140625 c 1
 535 763 l 1
 483 776 l 1
 467.545898438 735.270507812 l 1
 441.604492188 744.7734375 412.516601562 750 380 750 c 0
442.311523438 668.7578125 m 1
 228.330078125 104.796875 l 1
 175.147460938 174.025390625 160.002929688 275.702148438 160.002929688 317.999023438 c 0
 160.002929688 556.999023438 233.002929688 690.999023438 363.002929688 690.999023438 c 0
 392.263671875 690.999023438 418.772460938 683.087890625 442.311523438 668.7578125 c 1
485.274414062 632.0859375 m 1
 540.752929688 568.87890625 571.00390625 461.713867188 571.00390625 344.998046875 c 0
 571.00390625 159.998046875 496.00390625 34.998046875 365.00390625 34.998046875 c 0
 326.850585938 34.998046875 295.430664062 46.2724609375 269.658203125 64.46875 c 1
 485.274414062 632.0859375 l 1
EndSplineSet
EndChar

StartChar: Ugrave
Encoding: 217 217 149
Width: 724
Flags: MW
HStem: -13 65<309.5 444.5 309.5 481> 726 37<73.5 98 73.5 286.5 456.5 481> 922 81
VStem: 132.5 84<216 677 275 677> 515.5 84<232 677 275 677>
LayerCount: 2
Fore
SplineSet
537 824 m 1
 518 794 l 1
 518 794 287 884 187 922 c 0
 166 930 160 949 161 962 c 0
 164 993 182 1003 215 1003 c 0
 271 1003 537 824 537 824 c 1
216.5 275 m 2
 216.5 677 l 2
 216.5 721 231.5 727 286.5 726 c 1
 286.5 763 l 1
 73.5 763 l 1
 73.5 726 l 1
 122.5 726 132.5 725 132.5 677 c 2
 132.5 275 l 2
 132.5 157 152.5 -13 378.5 -13 c 0
 583.5 -13 599.5 153 599.5 275 c 2
 599.5 677 l 2
 599.5 721 614.5 727 669.5 726 c 1
 669.5 763 l 1
 456.5 763 l 1
 456.5 726 l 1
 505.5 726 515.5 725 515.5 677 c 2
 515.5 275 l 2
 515.5 189 510.5 52 378.5 52 c 0
 240.5 52 216.5 174 216.5 275 c 2
EndSplineSet
EndChar

StartChar: Uacute
Encoding: 218 218 150
Width: 724
Flags: MW
HStem: -13 65<265.5 400.5 265.5 437> 726 37<29.5 54 29.5 242.5 412.5 437> 795 21G<121 121>
VStem: 88.5 84<216 677 275 677> 471.5 84<232 677 275 677>
LayerCount: 2
Fore
SplineSet
121 795 m 1
 101 831 l 1
 373 985 l 1
 373 985 412 1010 441 1010 c 0
 467 1010 503 1002 503 962 c 0
 503 930 470 906 409 886 c 0
 267 840 121 795 121 795 c 1
172.5 275 m 2
 172.5 677 l 2
 172.5 721 187.5 727 242.5 726 c 1
 242.5 763 l 1
 29.5 763 l 1
 29.5 726 l 1
 78.5 726 88.5 725 88.5 677 c 2
 88.5 275 l 2
 88.5 157 108.5 -13 334.5 -13 c 0
 539.5 -13 555.5 153 555.5 275 c 2
 555.5 677 l 2
 555.5 721 570.5 727 625.5 726 c 1
 625.5 763 l 1
 412.5 763 l 1
 412.5 726 l 1
 461.5 726 471.5 725 471.5 677 c 2
 471.5 275 l 2
 471.5 189 466.5 52 334.5 52 c 0
 196.5 52 172.5 174 172.5 275 c 2
EndSplineSet
EndChar

StartChar: Ucircumflex
Encoding: 219 219 151
Width: 724
Flags: MW
HStem: -13 65<304.5 439.5 304.5 476> 726 37<68.5 93 68.5 281.5 451.5 476> 936 107<356 368 368 379>
VStem: 127.5 84<216 677 275 677> 510.5 84<232 677 275 677>
LayerCount: 2
Fore
SplineSet
152 869 m 1
 340 1064 331 1043 352 1043 c 2
 386 1043 l 2
 403 1043 393 1054 593 870 c 1
 535 835 l 1
 396 925 397 936 379 936 c 2
 368 936 l 2
 344 936 333 926 201 827 c 1
 152 869 l 1
211.5 275 m 2
 211.5 677 l 2
 211.5 721 226.5 727 281.5 726 c 1
 281.5 763 l 1
 68.5 763 l 1
 68.5 726 l 1
 117.5 726 127.5 725 127.5 677 c 2
 127.5 275 l 2
 127.5 157 147.5 -13 373.5 -13 c 0
 578.5 -13 594.5 153 594.5 275 c 2
 594.5 677 l 2
 594.5 721 609.5 727 664.5 726 c 1
 664.5 763 l 1
 451.5 763 l 1
 451.5 726 l 1
 500.5 726 510.5 725 510.5 677 c 2
 510.5 275 l 2
 510.5 189 505.5 52 373.5 52 c 0
 235.5 52 211.5 174 211.5 275 c 2
EndSplineSet
EndChar

StartChar: Udieresis
Encoding: 220 220 152
Width: 724
Flags: MW
HStem: -13 65<342.5 477.5 342.5 514> 726 37<106.5 131 106.5 319.5 489.5 514> 826 132<249.5 281.5 496.5 528.5>
VStem: 165.5 84<216 677 275 677> 202 130<877.5 910 873.5 913> 449 130<877.5 910 873.5 913> 548.5 84<232 677 275 677>
LayerCount: 2
Fore
SplineSet
264 958 m 0x2c
 311 958 332 926 332 894 c 0
 332 853 295 826 268 826 c 0
 231 826 202 859 202 896 c 0
 202 930 230 958 264 958 c 0x2c
510 958 m 0
 557 958 579 926 579 894 c 0
 579 853 542 826 515 826 c 0
 478 826 449 859 449 896 c 0
 449 930 476 958 510 958 c 0
249.5 275 m 2xd2
 249.5 677 l 2
 249.5 721 264.5 727 319.5 726 c 1
 319.5 763 l 1
 106.5 763 l 1
 106.5 726 l 1
 155.5 726 165.5 725 165.5 677 c 2
 165.5 275 l 2
 165.5 157 185.5 -13 411.5 -13 c 0
 616.5 -13 632.5 153 632.5 275 c 2
 632.5 677 l 2
 632.5 721 647.5 727 702.5 726 c 1
 702.5 763 l 1
 489.5 763 l 1
 489.5 726 l 1
 538.5 726 548.5 725 548.5 677 c 2
 548.5 275 l 2
 548.5 189 543.5 52 411.5 52 c 0
 273.5 52 249.5 174 249.5 275 c 2xd2
EndSplineSet
EndChar

StartChar: Yacute
Encoding: 221 221 153
Width: 724
Flags: MW
HStem: 0 38<186 205.5 411.5 431> 729 34<579.5 624> 795 21G<117 117>
VStem: 264 84<64 331.583 86 331.583 86 333>
LayerCount: 2
Fore
SplineSet
117 795 m 1
 97 831 l 1
 369 985 l 1
 369 985 408 1010 437 1010 c 0
 463 1010 499 1002 499 962 c 0
 499 930 466 906 405 886 c 0
 263 840 117 795 117 795 c 1
264 86 m 2
 264 42 225 38 186 38 c 1
 186 0 l 1
 431 0 l 1
 431 38 l 1
 392 38 348 38 348 86 c 2
 348 331.583007812 l 1
 502 652 l 1
 534 699 535 729 624 729 c 1
 624 763 l 1
 399 763 l 1
 399 727 l 1
 491 727 459 689 438 648 c 2
 321.251953125 411.171875 l 1
 147 763 l 1
 15 763 l 1
 15 726 l 1
 55 726 63 716 79 687 c 2
 264 333 l 1
 264 86 l 2
EndSplineSet
EndChar

StartChar: germandbls
Encoding: 223 223 154
Width: 724
Flags: MW
HStem: -13 51<449 539.5> 0 38<58 101.5 58 283> 468 50<54 114.5> 749 36
VStem: 182 98<527 538 538 538 538 601>
LayerCount: 2
Fore
SplineSet
282 86 m 2x78
 280 538 l 1
 279 653 l 2
 278.583007812 700.99609375 290.680664062 749 400 749 c 0
 480 749 529 684 509 584 c 0
 485.26953125 465.349609375 350 456 350 456 c 1
 351 416 l 1
 463 416 570.267578125 359.327148438 597 227 c 0
 617 128 578 38 501 38 c 0
 397 38 461 147 363 147 c 0
 321 147 308 117 308 86 c 0
 308 48 334 -13 491 -13 c 0xb8
 642 -13 704.043945312 89.9267578125 680 239 c 0
 660 363 555 445 438 445 c 1
 503 454 588.033203125 504.8671875 600 587 c 0
 622 738 512.044921875 782.838867188 406 785 c 0
 231.010742188 788.565429688 182 704 182 601 c 2
 182 536 l 2
 182 518 175 518 54 518 c 1
 54 468 l 1
 183 467 l 1
 184 86 l 2
 184 42 145 38 58 38 c 1
 58 0 l 1
 283 0 l 1
 283 0 282 38 282 86 c 2x78
EndSplineSet
EndChar

StartChar: agrave
Encoding: 224 224 155
Width: 662
Flags: MW
HStem: -12 53<286 323.941> 247.994 42.0039 506 40<377 409.5 327 421> 736 81
VStem: 134 101<106.5 171.583 106.5 176.264> 168 96 459 98<156.928 247.994 247.994 247.994 289.998 395 395 406>
LayerCount: 2
Fore
SplineSet
546 638 m 1x10
 527 608 l 1
 527 608 296 698 196 736 c 0
 175 744 169 763 170 776 c 0
 173 807 191 817 224 817 c 0
 280 817 546 638 546 638 c 1x10
168 417 m 0xe6
 189 485 278 546 376 546 c 0
 443 546 557 535 557 406 c 2
 557 121 l 2
 557 88 558 74 587 76 c 0
 608 78 654 97 654 97 c 1
 658.961914062 66.2333984375 l 2
 657.018554688 71.408203125 607 -13 525 -13 c 0
 479.391601562 -13 464.741210938 34.4375 460.448242188 64.98046875 c 1
 426.811523438 13.955078125 364.8828125 -12 283 -12 c 0
 180 -11 134 43 134 110 c 0xea
 134 242.528320312 272.014648438 289.665039062 459 289.998046875 c 1
 459 395 l 2
 459 454 465 506 377 506 c 0
 284 505 275 443 264 404 c 0
 253 358 237 345 205 354 c 0
 184 362 160 378 168 417 c 0xe6
658.961914062 66.2333984375 m 2
 659 66 l 2
 659 66.0888671875 658.987304688 66.1669921875 658.961914062 66.2333984375 c 2
459 156.927734375 m 1
 459 247.994140625 l 1
 340.22265625 247.561523438 235 221.166015625 235 122 c 0
 235 91 257 41 315 41 c 0
 398.778320312 41 445.545898438 93.705078125 459 156.927734375 c 1
669.961914062 66.2333984375 m 2
 670 66 l 2
 670 66.0888671875 669.987304688 66.1669921875 669.961914062 66.2333984375 c 2
EndSplineSet
EndChar

StartChar: aacute
Encoding: 225 225 156
Width: 662
Flags: MW
HStem: -12 53<198 235.941> 247.994 42.0039 506 40<289 321.5 239 333> 609 21G<86 86>
VStem: 46 101<106.5 171.583 106.5 176.264> 80 96 371 98<156.928 247.994 247.994 247.994 289.998 395 395 406>
LayerCount: 2
Fore
SplineSet
86 609 m 1x10
 66 645 l 1
 338 799 l 1
 338 799 377 824 406 824 c 0
 432 824 468 816 468 776 c 0
 468 744 435 720 374 700 c 0
 232 654 86 609 86 609 c 1x10
80 417 m 0xe6
 101 485 190 546 288 546 c 0
 355 546 469 535 469 406 c 2
 469 121 l 2
 469 88 470 74 499 76 c 0
 520 78 566 97 566 97 c 1
 570.961914062 66.2333984375 l 2
 569.018554688 71.408203125 519 -13 437 -13 c 0
 391.391601562 -13 376.741210938 34.4375 372.448242188 64.98046875 c 1
 338.811523438 13.955078125 276.8828125 -12 195 -12 c 0
 92 -11 46 43 46 110 c 0xea
 46 242.528320312 184.014648438 289.665039062 371 289.998046875 c 1
 371 395 l 2
 371 454 377 506 289 506 c 0
 196 505 187 443 176 404 c 0
 165 358 149 345 117 354 c 0
 96 362 72 378 80 417 c 0xe6
570.961914062 66.2333984375 m 2
 571 66 l 2
 571 66.0888671875 570.987304688 66.1669921875 570.961914062 66.2333984375 c 2
371 156.927734375 m 1
 371 247.994140625 l 1
 252.22265625 247.561523438 147 221.166015625 147 122 c 0
 147 91 169 41 227 41 c 0
 310.778320312 41 357.545898438 93.705078125 371 156.927734375 c 1
581.961914062 66.2333984375 m 2
 582 66 l 2
 582 66.0888671875 581.987304688 66.1669921875 581.961914062 66.2333984375 c 2
EndSplineSet
EndChar

StartChar: acircumflex
Encoding: 226 226 157
Width: 662
Flags: MW
HStem: -12 53<246 283.941> 247.994 42.0039 506 40<337 369.5 287 381> 750 107<341 353 353 364>
VStem: 94 101<106.5 171.583 106.5 176.264> 128 96 419 98<156.928 247.994 247.994 247.994 289.998 395 395 406>
LayerCount: 2
Fore
SplineSet
137 683 m 1x10
 325 878 316 857 337 857 c 2
 371 857 l 2
 388 857 378 868 578 684 c 1
 520 649 l 1
 381 739 382 750 364 750 c 2
 353 750 l 2
 329 750 318 740 186 641 c 1
 137 683 l 1x10
128 417 m 0xe6
 149 485 238 546 336 546 c 0
 403 546 517 535 517 406 c 2
 517 121 l 2
 517 88 518 74 547 76 c 0
 568 78 614 97 614 97 c 1
 618.961914062 66.2333984375 l 2
 617.018554688 71.408203125 567 -13 485 -13 c 0
 439.391601562 -13 424.741210938 34.4375 420.448242188 64.98046875 c 1
 386.811523438 13.955078125 324.8828125 -12 243 -12 c 0
 140 -11 94 43 94 110 c 0xea
 94 242.528320312 232.014648438 289.665039062 419 289.998046875 c 1
 419 395 l 2
 419 454 425 506 337 506 c 0
 244 505 235 443 224 404 c 0
 213 358 197 345 165 354 c 0
 144 362 120 378 128 417 c 0xe6
618.961914062 66.2333984375 m 2
 619 66 l 2
 619 66.0888671875 618.987304688 66.1669921875 618.961914062 66.2333984375 c 2
419 156.927734375 m 1
 419 247.994140625 l 1
 300.22265625 247.561523438 195 221.166015625 195 122 c 0
 195 91 217 41 275 41 c 0
 358.778320312 41 405.545898438 93.705078125 419 156.927734375 c 1
629.961914062 66.2333984375 m 2
 630 66 l 2
 630 66.0888671875 629.987304688 66.1669921875 629.961914062 66.2333984375 c 2
EndSplineSet
EndChar

StartChar: atilde
Encoding: 227 227 158
Width: 662
Flags: MW
HStem: -12 53<255 292.941> 247.994 42.0039 506 40<346 378.5 296 390> 643 69<389.5 442.5 380 475> 683 70<200 257 189.5 264>
VStem: 103 101<106.5 171.583 106.5 176.264> 137 96 428 98<156.928 247.994 247.994 247.994 289.998 395 395 406>
LayerCount: 2
Fore
SplineSet
107 641 m 1x08
 86 683 l 1
 86 683 161 753 218 753 c 0x08
 296 753 340 712 420 712 c 0
 465 712 531 746 531 746 c 1
 553 702 l 1
 553 702 520 643 430 643 c 0x10
 349 643 304 683 224 683 c 0
 176 683 107 641 107 641 c 1x08
137 417 m 0xe3
 158 485 247 546 345 546 c 0
 412 546 526 535 526 406 c 2
 526 121 l 2
 526 88 527 74 556 76 c 0
 577 78 623 97 623 97 c 1
 627.961914062 66.2333984375 l 2
 626.018554688 71.408203125 576 -13 494 -13 c 0
 448.391601562 -13 433.741210938 34.4375 429.448242188 64.98046875 c 1
 395.811523438 13.955078125 333.8828125 -12 252 -12 c 0
 149 -11 103 43 103 110 c 0xe5
 103 242.528320312 241.014648438 289.665039062 428 289.998046875 c 1
 428 395 l 2
 428 454 434 506 346 506 c 0
 253 505 244 443 233 404 c 0
 222 358 206 345 174 354 c 0
 153 362 129 378 137 417 c 0xe3
627.961914062 66.2333984375 m 2
 628 66 l 2
 628 66.0888671875 627.987304688 66.1669921875 627.961914062 66.2333984375 c 2
428 156.927734375 m 1
 428 247.994140625 l 1
 309.22265625 247.561523438 204 221.166015625 204 122 c 0
 204 91 226 41 284 41 c 0
 367.778320312 41 414.545898438 93.705078125 428 156.927734375 c 1
638.961914062 66.2333984375 m 2
 639 66 l 2
 639 66.0888671875 638.987304688 66.1669921875 638.961914062 66.2333984375 c 2
EndSplineSet
EndChar

StartChar: adieresis
Encoding: 228 228 159
Width: 662
Flags: MW
HStem: -12 53<319 356.941> 247.994 42.0039 506 40<410 442.5 360 454> 640 132<279.5 311.5 526.5 558.5>
VStem: 167 101<106.5 171.583 106.5 176.264> 201 96 232 130<691.5 724 687.5 727> 479 130<691.5 724 687.5 727> 492 98<156.928 247.994 247.994 247.994 289.998 395 395 406>
LayerCount: 2
Fore
SplineSet
294 772 m 0x13
 341 772 362 740 362 708 c 0
 362 667 325 640 298 640 c 0
 261 640 232 673 232 710 c 0
 232 744 260 772 294 772 c 0x13
540 772 m 0
 587 772 609 740 609 708 c 0
 609 667 572 640 545 640 c 0
 508 640 479 673 479 710 c 0
 479 744 506 772 540 772 c 0
201 417 m 0xe480
 222 485 311 546 409 546 c 0
 476 546 590 535 590 406 c 2
 590 121 l 2
 590 88 591 74 620 76 c 0
 641 78 687 97 687 97 c 1
 691.961914062 66.2333984375 l 2
 690.018554688 71.408203125 640 -13 558 -13 c 0
 512.391601562 -13 497.741210938 34.4375 493.448242188 64.98046875 c 1
 459.811523438 13.955078125 397.8828125 -12 316 -12 c 0
 213 -11 167 43 167 110 c 0xe880
 167 242.528320312 305.014648438 289.665039062 492 289.998046875 c 1
 492 395 l 2
 492 454 498 506 410 506 c 0
 317 505 308 443 297 404 c 0
 286 358 270 345 238 354 c 0
 217 362 193 378 201 417 c 0xe480
691.961914062 66.2333984375 m 2
 692 66 l 2
 692 66.0888671875 691.987304688 66.1669921875 691.961914062 66.2333984375 c 2
492 156.927734375 m 1
 492 247.994140625 l 1
 373.22265625 247.561523438 268 221.166015625 268 122 c 0
 268 91 290 41 348 41 c 0
 431.778320312 41 478.545898438 93.705078125 492 156.927734375 c 1
702.961914062 66.2333984375 m 2
 703 66 l 2
 703 66.0888671875 702.987304688 66.1669921875 702.961914062 66.2333984375 c 2
EndSplineSet
EndChar

StartChar: aring
Encoding: 229 229 160
Width: 662
Flags: MW
HStem: -12 53<246 283.941> 247.994 42.0039 506 40<337 369.5 287 381> 607 266
VStem: 94 101<106.5 171.583 106.5 176.264> 128 96 213.006 246 419 98<156.928 247.994 247.994 247.994 289.998 395 395 406>
LayerCount: 2
Fore
SplineSet
337.005859375 873 m 0x10
 408.005859375 872 463.005859375 808 459.005859375 737 c 0
 455.005859375 664 409.005859375 607 322.005859375 607 c 0
 261.005859375 607 209.005859375 675 213.005859375 742 c 0
 217.005859375 812 267.005859375 874 337.005859375 873 c 0x10
316.005859375 840 m 0
 278.005859375 833 246.005859375 788 261.005859375 721 c 0
 272.005859375 669 319.005859375 628 366.005859375 643 c 0
 414.005859375 659 418.005859375 717 412.005859375 753 c 0
 403.005859375 807 372.005859375 850 316.005859375 840 c 0
128 417 m 0xe5
 149 485 238 546 336 546 c 0
 403 546 517 535 517 406 c 2
 517 121 l 2
 517 88 518 74 547 76 c 0
 568 78 614 97 614 97 c 1
 618.961914062 66.2333984375 l 2
 617.018554688 71.408203125 567 -13 485 -13 c 0
 439.391601562 -13 424.741210938 34.4375 420.448242188 64.98046875 c 1
 386.811523438 13.955078125 324.8828125 -12 243 -12 c 0
 140 -11 94 43 94 110 c 0xe9
 94 242.528320312 232.014648438 289.665039062 419 289.998046875 c 1
 419 395 l 2
 419 454 425 506 337 506 c 0
 244 505 235 443 224 404 c 0
 213 358 197 345 165 354 c 0
 144 362 120 378 128 417 c 0xe5
618.961914062 66.2333984375 m 2
 619 66 l 2
 619 66.0888671875 618.987304688 66.1669921875 618.961914062 66.2333984375 c 2
419 156.927734375 m 1
 419 247.994140625 l 1
 300.22265625 247.561523438 195 221.166015625 195 122 c 0
 195 91 217 41 275 41 c 0
 358.778320312 41 405.545898438 93.705078125 419 156.927734375 c 1
629.961914062 66.2333984375 m 2
 630 66 l 2
 630 66.0888671875 629.987304688 66.1669921875 629.961914062 66.2333984375 c 2
EndSplineSet
EndChar

StartChar: ae
Encoding: 230 230 161
Width: 724
Flags: MW
HStem: -13 62 247.996 42.0031 504 41
VStem: 8 81 35 77 267 78.2549 600 73 648 20
LayerCount: 2
Fore
SplineSet
648 156 m 1xe5
 668.002929688 142.998046875 l 1
 647.002929688 78.998046875 600.002929688 -13.001953125 478.002929688 -13.001953125 c 0
 416.001953125 -13.001953125 344.4296875 23.54296875 302.885742188 108.684570312 c 1
 267.837890625 14.9521484375 193.927734375 -6.0009765625 127.001953125 -6.0009765625 c 0
 45.001953125 -5.0009765625 8.001953125 42.9990234375 8.001953125 109.999023438 c 0xf5
 8.001953125 242.703125 117.513671875 289.7890625 267.001953125 289.998046875 c 1
 267.001953125 394.999023438 l 2
 267.001953125 453.999023438 251.001953125 499.999023438 202.001953125 502.999023438 c 0
 150.001953125 505.999023438 121.001953125 442.999023438 112.001953125 403.999023438 c 0
 103.001953125 357.999023438 82.001953125 351.999023438 65.001953125 353.999023438 c 0
 38.001953125 357.999023438 28.001953125 377.999023438 35.001953125 416.999023438 c 0
 52.001953125 484.999023438 123.001953125 543.999023438 202.001953125 543.999023438 c 0
 244.389648438 543.999023438 305.262695312 538.453125 329.482421875 473.674804688 c 1
 364.76953125 516.486328125 416.346679688 544.999023438 487.000976562 544.999023438 c 0
 600.000976562 544.999023438 673.000976562 449.999023438 673.000976562 321.999023438 c 0xee
 672.000976562 282.999023438 677.000976562 283.999023438 641.000976562 279.999023438 c 2
 348.252929688 253.758789062 l 1
 350.015625 239.298828125 352.576171875 224.365234375 356 209 c 0
 381 121 414 49 511 49 c 0
 580 49 635 129 648 156 c 1xe5
267.002929688 247.994140625 m 1
 171.838867188 247.6328125 89.0029296875 221.302734375 89.0029296875 121.998046875 c 0
 89.0029296875 90.998046875 103.002929688 56.998046875 153.002929688 50.998046875 c 0
 213.002929688 43.998046875 258.002929688 95.998046875 268.002929688 161.998046875 c 0
 268.002929688 187.997070312 267.002929688 215.99609375 267.002929688 247.994140625 c 1
267.00390625 247.994140625 m 2
 269.78125 237.26953125 l 2
 269.501953125 240.599609375 269.254882812 243.966796875 269.040039062 247.37109375 c 2
 268.6875 247.998046875 l 2
 268.125976562 247.998046875 267.564453125 247.994140625 267.00390625 247.994140625 c 2
345.2578125 298.837890625 m 1
 600.002929688 323.998046875 l 1xe6
 600.002929688 399.998046875 549.002929688 503.998046875 479.002929688 503.998046875 c 0
 406.245117188 503.180664062 344.180664062 423.502929688 345.2578125 298.837890625 c 1
EndSplineSet
EndChar

StartChar: ccedilla
Encoding: 231 231 162
Width: 724
Flags: MW
HStem: -243 34<352.5 394.5 352.5 430.5> -25 20G<357 401 401 401> -13 76<361 419> 497 48<304 381.5>
VStem: 468 51<-176 -116>
LayerCount: 2
Fore
SplineSet
357 -5 m 1xc8
 401 -5 l 1
 390 -65 l 1
 390 -65 519 -50 519 -170 c 0
 519 -212 488 -243 373 -243 c 0
 305 -243 250 -210 250 -210 c 1
 267 -188 l 1
 267 -188 331 -209 374 -209 c 0
 415 -209 468 -199 468 -153 c 0
 468 -79 348 -114 348 -114 c 1
 357 -5 l 1xc8
365 545 m 0x30
 466 545 581 519 581 464 c 0
 581 424 547 405 518 405 c 0
 480 405 470 448 434 472 c 0
 414 485 402 497 361 497 c 0
 192 497 178 351 198 251 c 0
 220 130 297 63 425 63 c 0
 495 63 534 85 586 120 c 1
 610 100 l 1
 555 29 465 -13 373 -13 c 0
 213 -13 114 130 114 256 c 0
 114 449 243 545 365 545 c 0x30
EndSplineSet
EndChar

StartChar: egrave
Encoding: 232 232 163
Width: 724
Flags: MW
HStem: -13 62<351 445.5> 271 53<522.5 597> 504 41<371.5 415> 736 81
VStem: 109.5 94.8906 522.5 92<324 362>
LayerCount: 2
Fore
SplineSet
550.5 638 m 1
 531.5 608 l 1
 531.5 608 300.5 698 200.5 736 c 0
 179.5 744 173.5 763 174.5 776 c 0
 177.5 807 195.5 817 228.5 817 c 0
 284.5 817 550.5 638 550.5 638 c 1
582.5 156 m 1
 607.5 143 l 1
 581.5 79 521.5 -13 369.5 -13 c 0
 251.5 -13 109.5 71 109.5 281 c 0
 109.5 406 186.5 545 381.5 545 c 0
 522.5 545 614.5 450 614.5 322 c 0
 613.5 277 619.5 271 574.5 271 c 2
 204.390625 271.974609375 l 1
 205.677734375 249.26953125 209.583984375 234.215820312 216.5 209 c 0
 248.5 121 290.5 49 411.5 49 c 0
 497.5 49 565.5 129 582.5 156 c 1
205.326171875 325.87890625 m 1
 522.5 324 l 1
 522.5 400 458.5 504 371.5 504 c 0
 287.501953125 503.243164062 216.521484375 434.9140625 205.326171875 325.87890625 c 1
EndSplineSet
EndChar

StartChar: eacute
Encoding: 233 233 164
Width: 724
Flags: MW
HStem: -13 62<351 445.5> 271 53<522.5 597> 504 41<371.5 415> 609 21G<178.5 178.5>
VStem: 109.5 94.8906 522.5 92<324 362>
LayerCount: 2
Fore
SplineSet
178.5 609 m 1
 158.5 645 l 1
 430.5 799 l 1
 430.5 799 469.5 824 498.5 824 c 0
 524.5 824 560.5 816 560.5 776 c 0
 560.5 744 527.5 720 466.5 700 c 0
 324.5 654 178.5 609 178.5 609 c 1
582.5 156 m 1
 607.5 143 l 1
 581.5 79 521.5 -13 369.5 -13 c 0
 251.5 -13 109.5 71 109.5 281 c 0
 109.5 406 186.5 545 381.5 545 c 0
 522.5 545 614.5 450 614.5 322 c 0
 613.5 277 619.5 271 574.5 271 c 2
 204.390625 271.974609375 l 1
 205.677734375 249.26953125 209.583984375 234.215820312 216.5 209 c 0
 248.5 121 290.5 49 411.5 49 c 0
 497.5 49 565.5 129 582.5 156 c 1
205.326171875 325.87890625 m 1
 522.5 324 l 1
 522.5 400 458.5 504 371.5 504 c 0
 287.501953125 503.243164062 216.521484375 434.9140625 205.326171875 325.87890625 c 1
EndSplineSet
EndChar

StartChar: ecircumflex
Encoding: 234 234 165
Width: 724
Flags: MW
HStem: -13 62<351 445.5> 271 53<522.5 597> 504 41<371.5 415> 750 107<375.5 387.5 387.5 398.5>
VStem: 109.5 94.8906 522.5 92<324 362>
LayerCount: 2
Fore
SplineSet
171.5 683 m 1
 359.5 878 350.5 857 371.5 857 c 2
 405.5 857 l 2
 422.5 857 412.5 868 612.5 684 c 1
 554.5 649 l 1
 415.5 739 416.5 750 398.5 750 c 2
 387.5 750 l 2
 363.5 750 352.5 740 220.5 641 c 1
 171.5 683 l 1
582.5 156 m 1
 607.5 143 l 1
 581.5 79 521.5 -13 369.5 -13 c 0
 251.5 -13 109.5 71 109.5 281 c 0
 109.5 406 186.5 545 381.5 545 c 0
 522.5 545 614.5 450 614.5 322 c 0
 613.5 277 619.5 271 574.5 271 c 2
 204.390625 271.974609375 l 1
 205.677734375 249.26953125 209.583984375 234.215820312 216.5 209 c 0
 248.5 121 290.5 49 411.5 49 c 0
 497.5 49 565.5 129 582.5 156 c 1
205.326171875 325.87890625 m 1
 522.5 324 l 1
 522.5 400 458.5 504 371.5 504 c 0
 287.501953125 503.243164062 216.521484375 434.9140625 205.326171875 325.87890625 c 1
EndSplineSet
EndChar

StartChar: edieresis
Encoding: 235 235 166
Width: 724
Flags: MW
HStem: -13 62<351 445.5> 271 53<522.5 597> 504 41<371.5 415> 640 132<229 261 476 508>
VStem: 109.5 94.8906 181.5 130<691.5 724 687.5 727> 428.5 130<691.5 724 687.5 727> 522.5 92<324 362>
LayerCount: 2
Fore
SplineSet
243.5 772 m 0x16
 290.5 772 311.5 740 311.5 708 c 0
 311.5 667 274.5 640 247.5 640 c 0
 210.5 640 181.5 673 181.5 710 c 0
 181.5 744 209.5 772 243.5 772 c 0x16
489.5 772 m 0
 536.5 772 558.5 740 558.5 708 c 0
 558.5 667 521.5 640 494.5 640 c 0
 457.5 640 428.5 673 428.5 710 c 0
 428.5 744 455.5 772 489.5 772 c 0
582.5 156 m 1xe9
 607.5 143 l 1
 581.5 79 521.5 -13 369.5 -13 c 0
 251.5 -13 109.5 71 109.5 281 c 0
 109.5 406 186.5 545 381.5 545 c 0
 522.5 545 614.5 450 614.5 322 c 0
 613.5 277 619.5 271 574.5 271 c 2
 204.390625 271.974609375 l 1
 205.677734375 249.26953125 209.583984375 234.215820312 216.5 209 c 0
 248.5 121 290.5 49 411.5 49 c 0
 497.5 49 565.5 129 582.5 156 c 1xe9
205.326171875 325.87890625 m 1
 522.5 324 l 1
 522.5 400 458.5 504 371.5 504 c 0
 287.501953125 503.243164062 216.521484375 434.9140625 205.326171875 325.87890625 c 1
EndSplineSet
EndChar

StartChar: igrave
Encoding: 236 236 167
Width: 724
Flags: MW
HStem: 0 38<588 618 218 218> 481 43<218 272.5 218 298.5> 525 20G<419 454> 789 81
VStem: 379 96<416 509>
LayerCount: 2
Fore
SplineSet
473 86 m 2
 473 22 558 38 618 38 c 1
 618 0 l 1
 218 0 l 1
 218 38 l 1
 314 37 377 23 377 86 c 2
 379 416 l 2
 379 481 379 481 218 481 c 1
 218 524 l 1
 327 524 401 545 437 545 c 0
 471 545 475 528 475 490 c 2
 473 86 l 2
506 691 m 1
 487 662 l 1
 487 662 256 751 156 789 c 0
 135 797 129 817 130 830 c 0
 133 861 151 870 184 870 c 0
 240 870 506 691 506 691 c 1
EndSplineSet
EndChar

StartChar: iacute
Encoding: 237 237 168
Width: 724
Flags: MW
HStem: 0 38<435 465 65 65> 481 43<65 119.5 65 145.5> 525 20G<266 301>
VStem: 226 96<416 509>
LayerCount: 2
Fore
SplineSet
320 86 m 2
 320 22 405 38 465 38 c 1
 465 0 l 1
 65 0 l 1
 65 38 l 1
 161 37 224 23 224 86 c 2
 226 416 l 2
 226 481 226 481 65 481 c 1
 65 524 l 1
 174 524 248 545 284 545 c 0
 318 545 322 528 322 490 c 2
 320 86 l 2
152 651 m 1
 132 687 l 1
 404 841 l 1
 404 841 443 866 472 866 c 0
 498 866 534 858 534 818 c 0
 534 786 501 762 440 742 c 0
 298 696 152 651 152 651 c 1
EndSplineSet
EndChar

StartChar: icircumflex
Encoding: 238 238 169
Width: 724
Flags: MW
HStem: 0 38<515 545 145 145> 481 43<145 199.5 145 225.5> 525 20G<346 381> 781 107<325 337 337 348>
VStem: 306 96<416 509>
LayerCount: 2
Fore
SplineSet
400 86 m 2
 400 22 485 38 545 38 c 1
 545 0 l 1
 145 0 l 1
 145 38 l 1
 241 37 304 23 304 86 c 2
 306 416 l 2
 306 481 306 481 145 481 c 1
 145 524 l 1
 254 524 328 545 364 545 c 0
 398 545 402 528 402 490 c 2
 400 86 l 2
121 714 m 1
 309 909 300 888 321 888 c 2
 355 888 l 2
 372 888 362 899 562 715 c 1
 504 680 l 1
 365 770 366 781 348 781 c 2
 337 781 l 2
 313 781 302 771 170 672 c 1
 121 714 l 1
EndSplineSet
EndChar

StartChar: idieresis
Encoding: 239 239 170
Width: 724
Flags: MW
HStem: 0 38<615 645 245 245> 481 43<245 299.5 245 325.5> 525 20G<446 481> 693 132<281.5 313.5 528.5 560.5>
VStem: 234 130<743.5 777 740.5 779> 406 96<416 509> 480 131<743.5 777 740.5 779>
LayerCount: 2
Fore
SplineSet
500 86 m 2xfc
 500 22 585 38 645 38 c 1
 645 0 l 1
 245 0 l 1
 245 38 l 1
 341 37 404 23 404 86 c 2
 406 416 l 2
 406 481 406 481 245 481 c 1
 245 524 l 1
 354 524 428 545 464 545 c 0
 498 545 502 528 502 490 c 2
 500 86 l 2xfc
296 825 m 0
 343 825 364 793 364 761 c 0
 364 720 327 693 300 693 c 0
 263 693 234 725 234 762 c 0
 234 796 262 825 296 825 c 0
542 825 m 0
 589 825 611 793 611 761 c 0
 611 720 574 693 547 693 c 0
 510 693 480 725 480 762 c 0xfa
 480 796 508 825 542 825 c 0
EndSplineSet
EndChar

StartChar: ntilde
Encoding: 241 241 171
Width: 724
Flags: MW
HStem: 0 38<99 129 295 314 99 129 436 459 631 650> 479 33<73 86> 489 56<416.4 424> 643 69<435.5 488.5 426 521> 683 70<246 303 235.5 310>
VStem: 163 97 499 98<86 393 393 401>
LayerCount: 2
Fore
SplineSet
153 641 m 1x08
 132 683 l 1
 132 683 207 753 264 753 c 0x08
 342 753 386 712 466 712 c 0
 511 712 577 746 577 746 c 1
 599 702 l 1
 599 702 566 643 476 643 c 0x10
 395 643 350 683 270 683 c 0
 222 683 153 641 153 641 c 1x08
499 393 m 2xa6
 499 479 443 489 405 489 c 0xa6
 318.953125 489 265.8125 400.333007812 261.310546875 340.982421875 c 1
 260 86 l 2
 260 42 276 38 314 38 c 1
 314 0 l 1
 99 0 l 1
 99 38 l 1
 159 38 162 62 162 86 c 2
 163 435 l 2
 163 479 139 494 86 479 c 1
 73 512 l 1xc6
 119 533 157 545 211 545 c 1
 211 545 262 545 262 475 c 2
 261.916015625 458.650390625 l 1
 311.9375 519.814453125 381.799804688 545 451 545 c 0
 499 545 597 512 597 401 c 2
 597 86 l 2
 597 42 612 38 650 38 c 1
 650 0 l 1
 436 0 l 1
 436 38 l 1
 482 38 499 62 499 86 c 2
 499 393 l 2xa6
EndSplineSet
EndChar

StartChar: ograve
Encoding: 242 242 172
Width: 724
Flags: MW
HStem: -13 57 737 81
VStem: 131 514
LayerCount: 2
Fore
SplineSet
562 639 m 1
 543 609 l 1
 543 609 312 699 212 737 c 0
 191 745 185 764 186 777 c 0
 189 808 207 818 240 818 c 0
 296 818 562 639 562 639 c 1
395 544 m 0
 554 541 644.42578125 404.002929688 645 284 c 0
 646 75 513 -13 372 -13 c 0
 256 -13 131 86.099609375 131 252 c 0
 131 408.818359375 239 547 395 544 c 0
383 487 m 0
 291.293945312 493.28125 218 398 230 246 c 0
 241.856445312 95.8232421875 300.522460938 43.90234375 402 44 c 0
 507.963867188 44.1025390625 554.970703125 155.258789062 547 278 c 0
 537 432 456 482 383 487 c 0
EndSplineSet
EndChar

StartChar: oacute
Encoding: 243 243 173
Width: 724
Flags: MW
HStem: -13 57 609 21G<107 107>
VStem: 48 514
LayerCount: 2
Fore
SplineSet
107 609 m 1
 87 645 l 1
 359 799 l 1
 359 799 398 824 427 824 c 0
 453 824 489 816 489 776 c 0
 489 744 456 720 395 700 c 0
 253 654 107 609 107 609 c 1
312 544 m 0
 471 541 561.42578125 404.002929688 562 284 c 0
 563 75 430 -13 289 -13 c 0
 173 -13 48 86.099609375 48 252 c 0
 48 408.818359375 156 547 312 544 c 0
300 487 m 0
 208.293945312 493.28125 135 398 147 246 c 0
 158.856445312 95.8232421875 217.522460938 43.90234375 319 44 c 0
 424.963867188 44.1025390625 471.970703125 155.258789062 464 278 c 0
 454 432 373 482 300 487 c 0
EndSplineSet
EndChar

StartChar: ocircumflex
Encoding: 244 244 174
Width: 724
Flags: MW
HStem: -13 57 750 107<362 374 374 385>
VStem: 106 514
LayerCount: 2
Fore
SplineSet
158 683 m 1
 346 878 337 857 358 857 c 2
 392 857 l 2
 409 857 399 868 599 684 c 1
 541 649 l 1
 402 739 403 750 385 750 c 2
 374 750 l 2
 350 750 339 740 207 641 c 1
 158 683 l 1
370 544 m 0
 529 541 619.42578125 404.002929688 620 284 c 0
 621 75 488 -13 347 -13 c 0
 231 -13 106 86.099609375 106 252 c 0
 106 408.818359375 214 547 370 544 c 0
358 487 m 0
 266.293945312 493.28125 193 398 205 246 c 0
 216.856445312 95.8232421875 275.522460938 43.90234375 377 44 c 0
 482.963867188 44.1025390625 529.970703125 155.258789062 522 278 c 0
 512 432 431 482 358 487 c 0
EndSplineSet
EndChar

StartChar: otilde
Encoding: 245 245 175
Width: 724
Flags: MW
HStem: -13 57 643 69<411.5 464.5 402 497> 683 70<222 279 211.5 286>
VStem: 106 514
LayerCount: 2
Fore
SplineSet
129 641 m 1x20
 108 683 l 1
 108 683 183 753 240 753 c 0x20
 318 753 362 712 442 712 c 0
 487 712 553 746 553 746 c 1
 575 702 l 1
 575 702 542 643 452 643 c 0x40
 371 643 326 683 246 683 c 0
 198 683 129 641 129 641 c 1x20
370 544 m 0x90
 529 541 619.42578125 404.002929688 620 284 c 0
 621 75 488 -13 347 -13 c 0
 231 -13 106 86.099609375 106 252 c 0
 106 408.818359375 214 547 370 544 c 0x90
358 487 m 0
 266.293945312 493.28125 193 398 205 246 c 0
 216.856445312 95.8232421875 275.522460938 43.90234375 377 44 c 0
 482.963867188 44.1025390625 529.970703125 155.258789062 522 278 c 0
 512 432 431 482 358 487 c 0
EndSplineSet
EndChar

StartChar: odieresis
Encoding: 246 246 176
Width: 724
Flags: MW
HStem: -13 57 630 132<223.5 255.5 470.5 502.5>
VStem: 103 514 176 130<681.5 714 677.5 717> 423 130<681.5 714 677.5 717>
LayerCount: 2
Fore
SplineSet
238 762 m 0x58
 285 762 306 730 306 698 c 0
 306 657 269 630 242 630 c 0
 205 630 176 663 176 700 c 0
 176 734 204 762 238 762 c 0x58
484 762 m 0
 531 762 553 730 553 698 c 0
 553 657 516 630 489 630 c 0
 452 630 423 663 423 700 c 0
 423 734 450 762 484 762 c 0
367 544 m 0xa0
 526 541 616.42578125 404.002929688 617 284 c 0
 618 75 485 -13 344 -13 c 0
 228 -13 103 86.099609375 103 252 c 0
 103 408.818359375 211 547 367 544 c 0xa0
355 487 m 0
 263.293945312 493.28125 190 398 202 246 c 0
 213.856445312 95.8232421875 272.522460938 43.90234375 374 44 c 0
 479.963867188 44.1025390625 526.970703125 155.258789062 519 278 c 0
 509 432 428 482 355 487 c 0
EndSplineSet
EndChar

StartChar: divide
Encoding: 247 247 177
Width: 724
Flags: MW
HStem: 71 159<346 392 346 392.5> 460 158<346 392 346 392.5>
VStem: 285 155<137 176.5 137 180 526 565.5>
LayerCount: 2
Fore
SplineSet
368 230 m 0
 416 230 440 197 440 156 c 0
 440 118 423 71 362 71 c 0
 318 71 285 105 285 152 c 0
 285 208 324 230 368 230 c 0
368 618 m 0
 416 618 440 586 440 545 c 0
 440 507 423 460 362 460 c 0
 318 460 285 494 285 541 c 0
 285 597 324 618 368 618 c 0
563 328 m 1
 563 379 l 1
 162 380 l 1
 162 329 l 1
 563 328 l 1
EndSplineSet
EndChar

StartChar: oslash
Encoding: 248 248 178
Width: 724
Flags: MW
HStem: -13 21G
LayerCount: 2
Fore
SplineSet
308 490 m 0
 241 470 157.000976562 380 206.000976562 206 c 0
 213.137695312 180.8125 222.78515625 158.180664062 234.42578125 138.399414062 c 1
 446.33203125 459.123046875 l 1
 403.860351562 500.290039062 353.135742188 503.373046875 308 490 c 0
268.140625 94.2919921875 m 1
 310.84765625 51.4130859375 366.73828125 34.8759765625 423.001953125 52 c 0
 503.001953125 77 547.001953125 153 525.001953125 278 c 0
 514.421875 337.189453125 498.772460938 381.825195312 479.924804688 414.830078125 c 1
 268.140625 94.2919921875 l 1
524.444335938 482.209960938 m 1
 582.217773438 430.598632812 613.415039062 354.376953125 614.001953125 284.000976562 c 0
 615.001953125 58.0009765625 472.001953125 -12.9990234375 331.001953125 -12.9990234375 c 0
 291.493164062 -12.9990234375 253.956054688 -0.123046875 220.999023438 22.943359375 c 1
 151.000976562 -82.9990234375 l 1
 104.000976562 -58.9990234375 l 1
 181.326171875 58.033203125 l 1
 138.298828125 105.2265625 108.21484375 172.948242188 100.001953125 252.000976562 c 0
 84.001953125 408.000976562 208.001953125 547.000976562 364.001953125 544.000976562 c 0
 408.919921875 543.153320312 448.331054688 531.611328125 481.784179688 512.779296875 c 1
 548.001953125 613 l 1
 595.001953125 589 l 1
 524.444335938 482.209960938 l 1
EndSplineSet
EndChar

StartChar: ugrave
Encoding: 249 249 179
Width: 724
Flags: MW
HStem: -13 55<297.5 348.248> -1 21G<518.947 530> 503 26<417 417> 525 20G<196 207.5 532 540.5> 736 81
VStem: 129 98<149 192 192 435 435 456.5> 475 98<267.167 435 435 457>
LayerCount: 2
Fore
SplineSet
534 638 m 1x08
 515 608 l 1
 515 608 284 698 184 736 c 0
 163 744 157 763 158 776 c 0
 161 807 179 817 212 817 c 0
 268 817 534 638 534 638 c 1x08
417 529 m 1xa6
 501 545 532 545 532 545 c 2
 549 545 573 530 573 475 c 2
 573 118 l 2
 573 85 574 81 603 83 c 0
 624 85 663 94 663 94 c 1
 675 63 l 1
 675 63 607 0 530 -1 c 0x56
 507.89453125 -1 476.712890625 44.2626953125 475.098632812 78.8564453125 c 1
 442.756835938 33.076171875 391.495117188 -13 305 -13 c 0
 234 -13 129 15 129 149 c 2
 129 435 l 2
 129 478 130 497 104 497 c 0
 87 497 73 498 58 490 c 1
 50 523 l 1
 104 545 196 545 196 545 c 2x96
 219 545 227 524 227 475 c 2
 227 192 l 2
 227 63 274 42 321 42 c 0
 393.810546875 42 465.75 106.481445312 475 267.166992188 c 1
 475 435 l 2
 475 479 460 509 417 503 c 1
 417 529 l 1xa6
EndSplineSet
EndChar

StartChar: uacute
Encoding: 250 250 180
Width: 724
Flags: MW
HStem: -13 55<263.5 314.248> -1 21G<484.947 496> 503 26<383 383> 525 20G<162 173.5 498 506.5> 609 21G<180 180>
VStem: 95 98<149 192 192 435 435 456.5> 441 98<267.167 435 435 457>
LayerCount: 2
Fore
SplineSet
180 609 m 1x08
 160 645 l 1
 432 799 l 1
 432 799 471 824 500 824 c 0
 526 824 562 816 562 776 c 0
 562 744 529 720 468 700 c 0
 326 654 180 609 180 609 c 1x08
383 529 m 1xa6
 467 545 498 545 498 545 c 2
 515 545 539 530 539 475 c 2
 539 118 l 2
 539 85 540 81 569 83 c 0
 590 85 629 94 629 94 c 1
 641 63 l 1
 641 63 573 0 496 -1 c 0x56
 473.89453125 -1 442.712890625 44.2626953125 441.098632812 78.8564453125 c 1
 408.756835938 33.076171875 357.495117188 -13 271 -13 c 0
 200 -13 95 15 95 149 c 2
 95 435 l 2
 95 478 96 497 70 497 c 0
 53 497 39 498 24 490 c 1
 16 523 l 1
 70 545 162 545 162 545 c 2x96
 185 545 193 524 193 475 c 2
 193 192 l 2
 193 63 240 42 287 42 c 0
 359.810546875 42 431.75 106.481445312 441 267.166992188 c 1
 441 435 l 2
 441 479 426 509 383 503 c 1
 383 529 l 1xa6
EndSplineSet
EndChar

StartChar: ucircumflex
Encoding: 251 251 181
Width: 724
Flags: MW
HStem: -13 55<297.5 348.248> -1 21G<518.947 530> 503 26<417 417> 525 20G<196 207.5 532 540.5> 750 107<321 333 333 344>
VStem: 129 98<149 192 192 435 435 456.5> 475 98<267.167 435 435 457>
LayerCount: 2
Fore
SplineSet
117 683 m 1x08
 305 878 296 857 317 857 c 2
 351 857 l 2
 368 857 358 868 558 684 c 1
 500 649 l 1
 361 739 362 750 344 750 c 2
 333 750 l 2
 309 750 298 740 166 641 c 1
 117 683 l 1x08
417 529 m 1xa6
 501 545 532 545 532 545 c 2
 549 545 573 530 573 475 c 2
 573 118 l 2
 573 85 574 81 603 83 c 0
 624 85 663 94 663 94 c 1
 675 63 l 1
 675 63 607 0 530 -1 c 0x56
 507.89453125 -1 476.712890625 44.2626953125 475.098632812 78.8564453125 c 1
 442.756835938 33.076171875 391.495117188 -13 305 -13 c 0
 234 -13 129 15 129 149 c 2
 129 435 l 2
 129 478 130 497 104 497 c 0
 87 497 73 498 58 490 c 1
 50 523 l 1
 104 545 196 545 196 545 c 2x96
 219 545 227 524 227 475 c 2
 227 192 l 2
 227 63 274 42 321 42 c 0
 393.810546875 42 465.75 106.481445312 475 267.166992188 c 1
 475 435 l 2
 475 479 460 509 417 503 c 1
 417 529 l 1xa6
EndSplineSet
EndChar

StartChar: udieresis
Encoding: 252 252 182
Width: 724
Flags: MW
HStem: -13 55<300.5 351.248> -1 21G<521.947 533> 503 26<420 420> 525 20G<199 210.5 535 543.5> 640 132<196.5 228.5 443.5 475.5>
VStem: 132 98<149 192 192 435 435 456.5> 149 130<691.5 724 687.5 727> 396 130<691.5 724 687.5 727> 478 98<267.167 435 435 457>
LayerCount: 2
Fore
SplineSet
211 772 m 0x0b
 258 772 279 740 279 708 c 0
 279 667 242 640 215 640 c 0
 178 640 149 673 149 710 c 0
 149 744 177 772 211 772 c 0x0b
457 772 m 0
 504 772 526 740 526 708 c 0
 526 667 489 640 462 640 c 0
 425 640 396 673 396 710 c 0
 396 744 423 772 457 772 c 0
420 529 m 1xa480
 504 545 535 545 535 545 c 2
 552 545 576 530 576 475 c 2
 576 118 l 2
 576 85 577 81 606 83 c 0
 627 85 666 94 666 94 c 1
 678 63 l 1
 678 63 610 0 533 -1 c 0x5480
 510.89453125 -1 479.712890625 44.2626953125 478.098632812 78.8564453125 c 1
 445.756835938 33.076171875 394.495117188 -13 308 -13 c 0
 237 -13 132 15 132 149 c 2
 132 435 l 2
 132 478 133 497 107 497 c 0
 90 497 76 498 61 490 c 1
 53 523 l 1
 107 545 199 545 199 545 c 2x9480
 222 545 230 524 230 475 c 2
 230 192 l 2
 230 63 277 42 324 42 c 0
 396.810546875 42 468.75 106.481445312 478 267.166992188 c 1
 478 435 l 2
 478 479 463 509 420 503 c 1
 420 529 l 1xa480
EndSplineSet
EndChar

StartChar: yacute
Encoding: 253 253 183
Width: 724
Flags: MW
HStem: 491 46<124.5 142.5> 498 31<445 458.5 445 648> 644 21G<222 222>
LayerCount: 2
Fore
SplineSet
222 644 m 1x20
 202 680 l 1
 474 834 l 1
 474 834 513 859 542 859 c 0
 568 859 604 851 604 811 c 0
 604 779 571 755 510 735 c 0
 368 689 222 644 222 644 c 1x20
264 -148 m 1x80
 570 466 l 2
 584 496 648 498 648 498 c 1
 648 529 l 1
 445 529 l 1
 445 498 l 1x40
 472 498 511 494 503 466 c 1
 366 178 l 1
 256 506 l 1
 243 525 207 537 152 537 c 0
 97 537 76 510 76 510 c 1
 89 482 l 1
 89 482 104 491 130 491 c 0
 155 491 168 492 183 437 c 2
 311 61 l 1
 250 -57 l 2
 211 -125 147 -99 121 -148 c 0
 106 -177 144 -210 177 -210 c 0
 236 -210 264 -148 264 -148 c 1x80
EndSplineSet
EndChar

StartChar: thorn
Encoding: 254 254 184
Width: 724
Flags: MW
HStem: -233 38<338 368 103 103> 0 46<368.735 444 368.735 477> 489 56<399.679 451.5> 760 20G<210.5 239>
VStem: 166 98<-147 32.6826 85.8076 357.665 457.46 684 684 706>
LayerCount: 2
Fore
SplineSet
64 750 m 1
 103 752 194 780 227 780 c 0
 251 780 264 775 264 716 c 2
 264 457.459960938 l 1
 323.954101562 525.9921875 364.357421875 545 435 545 c 0
 613 545 679 401 669 261 c 1
 648 76 550 0 404 0 c 0
 331.92578125 0 292.83203125 15.0439453125 264 32.6826171875 c 1
 264 -147 l 2
 264 -195 308 -195 368 -195 c 1
 368 -233 l 1
 103 -233 l 1
 103 -195 l 1
 158 -196 166 -180 166 -147 c 2
 166 684 l 2
 166 728 69 718 69 718 c 1
 64 750 l 1
264 357.665039062 m 1
 264 85.8076171875 l 1
 296.084960938 65.1484375 337.470703125 46 400 46 c 0
 488 46 560 119 573 255 c 1
 580 433 496 489 407 489 c 0
 374.76171875 489 275.094726562 455.735351562 264 357.665039062 c 1
EndSplineSet
EndChar

StartChar: ydieresis
Encoding: 255 255 185
Width: 724
Flags: MW
HStem: 491 46<124.5 142.5> 498 31<445 458.5 445 648> 642 132<240.5 272.5 487.5 519.5>
VStem: 193 130<693.5 726 689.5 729> 440 130<693.5 726>
LayerCount: 2
Fore
SplineSet
255 774 m 0x38
 302 774 323 742 323 710 c 0
 323 669 286 642 259 642 c 0
 222 642 193 675 193 712 c 0
 193 746 221 774 255 774 c 0x38
501 774 m 0
 548 774 570 742 570 710 c 0
 570 669 533 642 506 642 c 0
 469 642 440 675 440 712 c 0
 440 746 467 774 501 774 c 0
264 -148 m 1x80
 570 466 l 2
 584 496 648 498 648 498 c 1
 648 529 l 1
 445 529 l 1
 445 498 l 1x40
 472 498 511 494 503 466 c 1
 366 178 l 1
 256 506 l 1
 243 525 207 537 152 537 c 0
 97 537 76 510 76 510 c 1
 89 482 l 1
 89 482 104 491 130 491 c 0
 155 491 168 492 183 437 c 2
 311 61 l 1
 250 -57 l 2
 211 -125 147 -99 121 -148 c 0
 106 -177 144 -210 177 -210 c 0
 236 -210 264 -148 264 -148 c 1x80
EndSplineSet
EndChar
